<svg width="1920" height="500" viewBox="0 0 1920 500" fill="none" xmlns="http://www.w3.org/2000/svg">
<path d="M1295.14 393.362L1226.55 324.431M1226.55 324.431L1209 342.069L1226.55 324.431ZM1209 342.069L1277.59 411L1209 342.069ZM1277.59 411L1295.14 393.362L1277.59 411Z" stroke="#9499B0" stroke-width="2"/>
<path d="M1235.07 399.371L1250.78 383.66M1235.91 368.792L1220.2 384.503L1235.91 368.792ZM1220.2 384.503L1235.07 399.371L1220.2 384.503Z" stroke="#9499B0" stroke-width="2"/>
<path d="M1277.97 326.808L1253.36 351.412M1268.16 366.208L1292.76 341.604L1268.16 366.208ZM1292.76 341.604L1293.25 341.077L1292.76 341.604ZM1293.25 341.077L1293.7 340.516L1293.25 341.077ZM1293.7 340.516L1294.1 339.923L1293.7 340.516ZM1294.1 339.923L1294.46 339.301L1294.1 339.923ZM1294.46 339.301L1294.78 338.652L1294.46 339.301ZM1294.78 338.652L1295.04 337.985L1294.78 338.652ZM1295.04 337.985L1295.25 337.297L1295.04 337.985ZM1295.25 337.297L1295.41 336.598L1295.25 337.297ZM1295.41 336.598L1295.52 335.887L1295.41 336.598ZM1295.52 335.887L1295.57 335.171L1295.52 335.887ZM1295.57 335.171V334.453V335.171ZM1295.57 334.453L1295.52 333.736L1295.57 334.453ZM1295.52 333.736L1295.41 333.026L1295.52 333.736ZM1295.41 333.026L1295.25 332.326L1295.41 333.026ZM1295.25 332.326L1295.04 331.639L1295.25 332.326ZM1295.04 331.639L1294.78 330.971L1295.04 331.639ZM1294.78 330.971L1294.46 330.324L1294.78 330.971ZM1294.46 330.324L1294.1 329.701L1294.46 330.324ZM1294.1 329.701L1293.7 329.108L1294.1 329.701ZM1293.7 329.108L1293.25 328.546L1293.7 329.108ZM1293.25 328.546L1292.76 328.02L1293.25 328.546ZM1292.76 328.02L1291.55 326.808L1292.76 328.02ZM1291.55 326.808L1291.02 326.318L1291.55 326.808ZM1291.02 326.318L1290.46 325.871L1291.02 326.318ZM1290.46 325.871L1289.87 325.466L1290.46 325.871ZM1289.87 325.466L1289.25 325.107L1289.87 325.466ZM1289.25 325.107L1288.6 324.796L1289.25 325.107ZM1288.6 324.796L1287.93 324.533L1288.6 324.796ZM1287.93 324.533L1287.24 324.321L1287.93 324.533ZM1287.24 324.321L1286.54 324.162L1287.24 324.321ZM1286.54 324.162L1285.83 324.054L1286.54 324.162ZM1285.83 324.054L1285.12 324L1285.83 324.054ZM1285.12 324H1284.4H1285.12ZM1284.4 324L1283.68 324.054L1284.4 324ZM1283.68 324.054L1282.97 324.162L1283.68 324.054ZM1282.97 324.162L1282.27 324.321L1282.97 324.162ZM1282.27 324.321L1281.59 324.533L1282.27 324.321ZM1281.59 324.533L1280.92 324.796L1281.59 324.533ZM1280.92 324.796L1280.27 325.107L1280.92 324.796ZM1280.27 325.107L1279.65 325.466L1280.27 325.107ZM1279.65 325.466L1279.05 325.871L1279.65 325.466ZM1279.05 325.871L1278.49 326.318L1279.05 325.871ZM1278.49 326.318L1277.97 326.808L1278.49 326.318Z" stroke="#9499B0" stroke-width="2"/>
<path d="M1287.39 347.257L1272.31 332.183" stroke="#9499B0" stroke-width="2"/>
<path d="M1234.84 399.371L1212.01 409.277" stroke="#9499B0" stroke-width="2"/>
<path d="M1212.01 409.277L1220.2 384.728" stroke="#9499B0" stroke-width="2"/>
<path d="M1227.52 392.05L1243.02 376.545" stroke="#9499B0" stroke-width="2"/>
<path d="M1274.47 394.203L1267.57 401.094" stroke="#9499B0" stroke-width="2"/>
<path d="M1267.14 381.713L1257.67 391.188" stroke="#9499B0" stroke-width="2"/>
<path d="M1247.76 361.901L1238.29 371.376" stroke="#9499B0" stroke-width="2"/>
<path d="M1255.08 374.822L1248.19 381.282" stroke="#9499B0" stroke-width="2"/>
<path d="M1261.11 358.886L1280.06 339.936" stroke="#9499B0" stroke-width="2"/>
<path d="M1235.27 355.441L1228.81 361.901" stroke="#9499B0" stroke-width="2"/>
<path d="M1227.52 342.089L1218.04 351.564" stroke="#9499B0" stroke-width="2"/>
<path d="M1562.76 206.847L1563.41 206.82M1563.41 206.82H1617.65H1563.41ZM1617.65 206.82L1618.29 206.847L1617.65 206.82ZM1618.29 206.847L1618.93 206.932L1618.29 206.847ZM1618.93 206.932L1619.56 207.072L1618.93 206.932ZM1619.56 207.072L1620.18 207.267L1619.56 207.072ZM1620.18 207.267L1620.78 207.515L1620.18 207.267ZM1620.78 207.515L1621.35 207.813L1620.78 207.515ZM1621.35 207.813L1621.9 208.161L1621.35 207.813ZM1621.9 208.161L1622.41 208.554L1621.9 208.161ZM1622.41 208.554L1622.88 208.991L1622.41 208.554ZM1622.88 208.991L1623.32 209.468L1622.88 208.991ZM1623.32 209.468L1623.72 209.98L1623.32 209.468ZM1623.72 209.98L1624.06 210.526L1623.72 209.98ZM1624.06 210.526L1624.36 211.1L1624.06 210.526ZM1624.36 211.1L1624.61 211.697L1624.36 211.1ZM1624.61 211.697L1624.8 212.314L1624.61 211.697ZM1624.8 212.314L1624.94 212.945L1624.8 212.314ZM1624.94 212.945L1625.03 213.585L1624.94 212.945ZM1625.03 213.585L1625.05 214.232L1625.03 213.585ZM1625.05 214.232V285.408V214.232ZM1625.05 285.408L1625.03 286.055L1625.05 285.408ZM1625.03 286.055L1624.94 286.695L1625.03 286.055ZM1624.94 286.695L1624.8 287.326L1624.94 286.695ZM1624.8 287.326L1624.61 287.943L1624.8 287.326ZM1624.61 287.943L1624.36 288.54L1624.61 287.943ZM1624.36 288.54L1624.06 289.114L1624.36 288.54ZM1624.06 289.114L1623.72 289.66L1624.06 289.114ZM1623.72 289.66L1623.32 290.172L1623.72 289.66ZM1623.32 290.172L1622.88 290.649L1623.32 290.172ZM1622.88 290.649L1622.41 291.086L1622.88 290.649ZM1622.41 291.086L1621.9 291.479L1622.41 291.086ZM1621.9 291.479L1621.35 291.827L1621.9 291.479ZM1621.35 291.827L1620.78 292.125L1621.35 291.827ZM1620.78 292.125L1620.18 292.373L1620.78 292.125ZM1620.18 292.373L1619.56 292.568L1620.18 292.373ZM1619.56 292.568L1618.93 292.708L1619.56 292.568ZM1618.93 292.708L1618.29 292.793L1618.93 292.708ZM1618.29 292.793L1617.65 292.82L1618.29 292.793ZM1617.65 292.82H1563.41H1617.65ZM1563.41 292.82L1562.76 292.793L1563.41 292.82ZM1562.76 292.793L1562.12 292.708L1562.76 292.793ZM1562.12 292.708L1561.49 292.568L1562.12 292.708ZM1561.49 292.568L1560.87 292.373L1561.49 292.568ZM1560.87 292.373L1560.28 292.125L1560.87 292.373ZM1560.28 292.125L1559.7 291.827L1560.28 292.125ZM1559.7 291.827L1559.16 291.479L1559.7 291.827ZM1559.16 291.479L1558.65 291.086L1559.16 291.479ZM1558.65 291.086L1558.17 290.649L1558.65 291.086ZM1558.17 290.649L1557.73 290.172L1558.17 290.649ZM1557.73 290.172L1557.34 289.66L1557.73 290.172ZM1557.34 289.66L1556.99 289.114L1557.34 289.66ZM1556.99 289.114L1556.69 288.54L1556.99 289.114ZM1556.69 288.54L1556.45 287.943L1556.69 288.54ZM1556.45 287.943L1556.25 287.326L1556.45 287.943ZM1556.25 287.326L1556.11 286.695L1556.25 287.326ZM1556.11 286.695L1556.03 286.055L1556.11 286.695ZM1556.03 286.055L1556 285.408L1556.03 286.055ZM1556 285.408V214.232V285.408ZM1556 214.232L1556.03 213.585L1556 214.232ZM1556.03 213.585L1556.11 212.945L1556.03 213.585ZM1556.11 212.945L1556.25 212.314L1556.11 212.945ZM1556.25 212.314L1556.45 211.697L1556.25 212.314ZM1556.45 211.697L1556.69 211.1L1556.45 211.697ZM1556.69 211.1L1556.99 210.526L1556.69 211.1ZM1556.99 210.526L1557.34 209.98L1556.99 210.526ZM1557.34 209.98L1557.73 209.468L1557.34 209.98ZM1557.73 209.468L1558.17 208.991L1557.73 209.468ZM1558.17 208.991L1558.65 208.554L1558.17 208.991ZM1558.65 208.554L1559.16 208.161L1558.65 208.554ZM1559.16 208.161L1559.7 207.813L1559.16 208.161ZM1559.7 207.813L1560.28 207.515L1559.7 207.813ZM1560.28 207.515L1560.87 207.267L1560.28 207.515ZM1560.87 207.267L1561.49 207.072L1560.87 207.267ZM1561.49 207.072L1562.12 206.932L1561.49 207.072ZM1562.12 206.932L1562.76 206.847L1562.12 206.932Z" stroke="#9499B0" stroke-width="2"/>
<path d="M1569.97 214.049L1570.62 214.022M1570.62 214.022H1610.86H1570.62ZM1610.86 214.022L1611.5 214.049L1610.86 214.022ZM1611.5 214.049L1612.15 214.134L1611.5 214.049ZM1612.15 214.134L1612.78 214.274L1612.15 214.134ZM1612.78 214.274L1613.39 214.468L1612.78 214.274ZM1613.39 214.468L1613.99 214.714L1613.39 214.468ZM1613.99 214.714L1614.57 215.013L1613.99 214.714ZM1614.57 215.013L1615.11 215.36L1614.57 215.013ZM1615.11 215.36L1615.63 215.753L1615.11 215.36ZM1615.63 215.753L1616.1 216.189L1615.63 215.753ZM1616.1 216.189L1616.54 216.664L1616.1 216.189ZM1616.54 216.664L1616.93 217.176L1616.54 216.664ZM1616.93 217.176L1617.28 217.721L1616.93 217.176ZM1617.28 217.721L1617.58 218.294L1617.28 217.721ZM1617.58 218.294L1617.83 218.889L1617.58 218.294ZM1617.83 218.889L1618.02 219.505L1617.83 218.889ZM1618.02 219.505L1618.16 220.135L1618.02 219.505ZM1618.16 220.135L1618.25 220.774L1618.16 220.135ZM1618.25 220.774L1618.28 221.42L1618.25 220.774ZM1618.28 221.42V224.84V221.42ZM1618.28 224.84L1618.25 225.485L1618.28 224.84ZM1618.25 225.485L1618.16 226.125L1618.25 225.485ZM1618.16 226.125L1618.02 226.755L1618.16 226.125ZM1618.02 226.755L1617.83 227.37L1618.02 226.755ZM1617.83 227.37L1617.58 227.967L1617.83 227.37ZM1617.58 227.967L1617.28 228.54L1617.58 227.967ZM1617.28 228.54L1616.93 229.083L1617.28 228.54ZM1616.93 229.083L1616.54 229.596L1616.93 229.083ZM1616.54 229.596L1616.1 230.072L1616.54 229.596ZM1616.1 230.072L1615.63 230.508L1616.1 230.072ZM1615.63 230.508L1615.11 230.901L1615.63 230.508ZM1615.11 230.901L1614.57 231.247L1615.11 230.901ZM1614.57 231.247L1613.99 231.545L1614.57 231.247ZM1613.99 231.545L1613.39 231.793L1613.99 231.545ZM1613.39 231.793L1612.78 231.985L1613.39 231.793ZM1612.78 231.985L1612.15 232.126L1612.78 231.985ZM1612.15 232.126L1611.5 232.21L1612.15 232.126ZM1611.5 232.21L1610.86 232.239L1611.5 232.21ZM1610.86 232.239H1570.62H1610.86ZM1570.62 232.239L1569.97 232.21L1570.62 232.239ZM1569.97 232.21L1569.33 232.126L1569.97 232.21ZM1569.33 232.126L1568.7 231.985L1569.33 232.126ZM1568.7 231.985L1568.08 231.793L1568.7 231.985ZM1568.08 231.793L1567.49 231.545L1568.08 231.793ZM1567.49 231.545L1566.91 231.247L1567.49 231.545ZM1566.91 231.247L1566.37 230.901L1566.91 231.247ZM1566.37 230.901L1565.85 230.508L1566.37 230.901ZM1565.85 230.508L1565.37 230.072L1565.85 230.508ZM1565.37 230.072L1564.94 229.596L1565.37 230.072ZM1564.94 229.596L1564.54 229.083L1564.94 229.596ZM1564.54 229.083L1564.2 228.54L1564.54 229.083ZM1564.2 228.54L1563.9 227.967L1564.2 228.54ZM1563.9 227.967L1563.65 227.37L1563.9 227.967ZM1563.65 227.37L1563.45 226.755L1563.65 227.37ZM1563.45 226.755L1563.31 226.125L1563.45 226.755ZM1563.31 226.125L1563.23 225.485L1563.31 226.125ZM1563.23 225.485L1563.2 224.84L1563.23 225.485ZM1563.2 224.84V221.42V224.84ZM1563.2 221.42L1563.23 220.774L1563.2 221.42ZM1563.23 220.774L1563.31 220.135L1563.23 220.774ZM1563.31 220.135L1563.45 219.505L1563.31 220.135ZM1563.45 219.505L1563.65 218.889L1563.45 219.505ZM1563.65 218.889L1563.9 218.294L1563.65 218.889ZM1563.9 218.294L1564.2 217.721L1563.9 218.294ZM1564.2 217.721L1564.54 217.176L1564.2 217.721ZM1564.54 217.176L1564.94 216.664L1564.54 217.176ZM1564.94 216.664L1565.37 216.189L1564.94 216.664ZM1565.37 216.189L1565.85 215.753L1565.37 216.189ZM1565.85 215.753L1566.37 215.36L1565.85 215.753ZM1566.37 215.36L1566.91 215.013L1566.37 215.36ZM1566.91 215.013L1567.49 214.714L1566.91 215.013ZM1567.49 214.714L1568.08 214.468L1567.49 214.714ZM1568.08 214.468L1568.7 214.274L1568.08 214.468ZM1568.7 214.274L1569.33 214.134L1568.7 214.274ZM1569.33 214.134L1569.97 214.049L1569.33 214.134Z" stroke="#9499B0" stroke-width="2"/>
<path d="M1566.13 238.196L1566.62 238.17M1566.62 238.17H1574.19H1566.62ZM1574.19 238.17L1574.68 238.196L1574.19 238.17ZM1574.68 238.196L1575.16 238.273L1574.68 238.196ZM1575.16 238.273L1575.64 238.402L1575.16 238.273ZM1575.64 238.402L1576.09 238.58L1575.64 238.402ZM1576.09 238.58L1576.53 238.804L1576.09 238.58ZM1576.53 238.804L1576.94 239.075L1576.53 238.804ZM1576.94 239.075L1577.32 239.386L1576.94 239.075ZM1577.32 239.386L1577.67 239.738L1577.32 239.386ZM1577.67 239.738L1577.98 240.124L1577.67 239.738ZM1577.98 240.124L1578.25 240.539L1577.98 240.124ZM1578.25 240.539L1578.47 240.981L1578.25 240.539ZM1578.47 240.981L1578.65 241.445L1578.47 240.981ZM1578.65 241.445L1578.78 241.924L1578.65 241.445ZM1578.78 241.924L1578.85 242.414L1578.78 241.924ZM1578.85 242.414L1578.88 242.909L1578.85 242.414ZM1578.88 242.909V247.834V242.909ZM1578.88 247.834L1578.85 248.33L1578.88 247.834ZM1578.85 248.33L1578.78 248.819L1578.85 248.33ZM1578.78 248.819L1578.65 249.299L1578.78 248.819ZM1578.65 249.299L1578.47 249.762L1578.65 249.299ZM1578.47 249.762L1578.25 250.204L1578.47 249.762ZM1578.25 250.204L1577.98 250.62L1578.25 250.204ZM1577.98 250.62L1577.67 251.005L1577.98 250.62ZM1577.67 251.005L1577.32 251.355L1577.67 251.005ZM1577.32 251.355L1576.94 251.668L1577.32 251.355ZM1576.94 251.668L1576.53 251.938L1576.94 251.668ZM1576.53 251.938L1576.09 252.164L1576.53 251.938ZM1576.09 252.164L1575.64 252.342L1576.09 252.164ZM1575.64 252.342L1575.16 252.469L1575.64 252.342ZM1575.16 252.469L1574.68 252.548L1575.16 252.469ZM1574.68 252.548L1574.19 252.574L1574.68 252.548ZM1574.19 252.574H1566.62H1574.19ZM1566.62 252.574L1566.13 252.548L1566.62 252.574ZM1566.13 252.548L1565.65 252.469L1566.13 252.548ZM1565.65 252.469L1565.17 252.342L1565.65 252.469ZM1565.17 252.342L1564.71 252.164L1565.17 252.342ZM1564.71 252.164L1564.28 251.938L1564.71 252.164ZM1564.28 251.938L1563.87 251.668L1564.28 251.938ZM1563.87 251.668L1563.48 251.355L1563.87 251.668ZM1563.48 251.355L1563.14 251.005L1563.48 251.355ZM1563.14 251.005L1562.83 250.62L1563.14 251.005ZM1562.83 250.62L1562.56 250.204L1562.83 250.62ZM1562.56 250.204L1562.34 249.762L1562.56 250.204ZM1562.34 249.762L1562.16 249.299L1562.34 249.762ZM1562.16 249.299L1562.03 248.819L1562.16 249.299ZM1562.03 248.819L1561.96 248.33L1562.03 248.819ZM1561.96 248.33L1561.93 247.834L1561.96 248.33ZM1561.93 247.834V242.909V247.834ZM1561.93 242.909L1561.96 242.414L1561.93 242.909ZM1561.96 242.414L1562.03 241.924L1561.96 242.414ZM1562.03 241.924L1562.16 241.445L1562.03 241.924ZM1562.16 241.445L1562.34 240.981L1562.16 241.445ZM1562.34 240.981L1562.56 240.539L1562.34 240.981ZM1562.56 240.539L1562.83 240.124L1562.56 240.539ZM1562.83 240.124L1563.14 239.738L1562.83 240.124ZM1563.14 239.738L1563.48 239.386L1563.14 239.738ZM1563.48 239.386L1563.87 239.075L1563.48 239.386ZM1563.87 239.075L1564.28 238.804L1563.87 239.075ZM1564.28 238.804L1564.71 238.58L1564.28 238.804ZM1564.71 238.58L1565.17 238.402L1564.71 238.58ZM1565.17 238.402L1565.65 238.273L1565.17 238.402ZM1565.65 238.273L1566.13 238.196L1565.65 238.273Z" stroke="#9499B0" stroke-width="2"/>
<path d="M1586.47 238.196L1586.96 238.17M1586.96 238.17H1594.52H1586.96ZM1594.52 238.17L1595.01 238.196L1594.52 238.17ZM1595.01 238.196L1595.5 238.273L1595.01 238.196ZM1595.5 238.273L1595.97 238.402L1595.5 238.273ZM1595.97 238.402L1596.43 238.58L1595.97 238.402ZM1596.43 238.58L1596.87 238.804L1596.43 238.58ZM1596.87 238.804L1597.28 239.075L1596.87 238.804ZM1597.28 239.075L1597.66 239.386L1597.28 239.075ZM1597.66 239.386L1598.01 239.738L1597.66 239.386ZM1598.01 239.738L1598.32 240.124L1598.01 239.738ZM1598.32 240.124L1598.58 240.539L1598.32 240.124ZM1598.58 240.539L1598.81 240.981L1598.58 240.539ZM1598.81 240.981L1598.98 241.445L1598.81 240.981ZM1598.98 241.445L1599.11 241.924L1598.98 241.445ZM1599.11 241.924L1599.19 242.414L1599.11 241.924ZM1599.19 242.414L1599.21 242.909L1599.19 242.414ZM1599.21 242.909V247.834V242.909ZM1599.21 247.834L1599.19 248.33L1599.21 247.834ZM1599.19 248.33L1599.11 248.819L1599.19 248.33ZM1599.11 248.819L1598.98 249.299L1599.11 248.819ZM1598.98 249.299L1598.81 249.762L1598.98 249.299ZM1598.81 249.762L1598.58 250.204L1598.81 249.762ZM1598.58 250.204L1598.32 250.62L1598.58 250.204ZM1598.32 250.62L1598.01 251.005L1598.32 250.62ZM1598.01 251.005L1597.66 251.355L1598.01 251.005ZM1597.66 251.355L1597.28 251.668L1597.66 251.355ZM1597.28 251.668L1596.87 251.938L1597.28 251.668ZM1596.87 251.938L1596.43 252.164L1596.87 251.938ZM1596.43 252.164L1595.97 252.342L1596.43 252.164ZM1595.97 252.342L1595.5 252.469L1595.97 252.342ZM1595.5 252.469L1595.01 252.548L1595.5 252.469ZM1595.01 252.548L1594.52 252.574L1595.01 252.548ZM1594.52 252.574H1586.96H1594.52ZM1586.96 252.574L1586.47 252.548L1586.96 252.574ZM1586.47 252.548L1585.98 252.469L1586.47 252.548ZM1585.98 252.469L1585.51 252.342L1585.98 252.469ZM1585.51 252.342L1585.05 252.164L1585.51 252.342ZM1585.05 252.164L1584.61 251.938L1585.05 252.164ZM1584.61 251.938L1584.2 251.668L1584.61 251.938ZM1584.2 251.668L1583.82 251.355L1584.2 251.668ZM1583.82 251.355L1583.47 251.005L1583.82 251.355ZM1583.47 251.005L1583.16 250.62L1583.47 251.005ZM1583.16 250.62L1582.9 250.204L1583.16 250.62ZM1582.9 250.204L1582.67 249.762L1582.9 250.204ZM1582.67 249.762L1582.5 249.299L1582.67 249.762ZM1582.5 249.299L1582.37 248.819L1582.5 249.299ZM1582.37 248.819L1582.29 248.33L1582.37 248.819ZM1582.29 248.33L1582.27 247.834L1582.29 248.33ZM1582.27 247.834V242.909V247.834ZM1582.27 242.909L1582.29 242.414L1582.27 242.909ZM1582.29 242.414L1582.37 241.924L1582.29 242.414ZM1582.37 241.924L1582.5 241.445L1582.37 241.924ZM1582.5 241.445L1582.67 240.981L1582.5 241.445ZM1582.67 240.981L1582.9 240.539L1582.67 240.981ZM1582.9 240.539L1583.16 240.124L1582.9 240.539ZM1583.16 240.124L1583.47 239.738L1583.16 240.124ZM1583.47 239.738L1583.82 239.386L1583.47 239.738ZM1583.82 239.386L1584.2 239.075L1583.82 239.386ZM1584.2 239.075L1584.61 238.804L1584.2 239.075ZM1584.61 238.804L1585.05 238.58L1584.61 238.804ZM1585.05 238.58L1585.51 238.402L1585.05 238.58ZM1585.51 238.402L1585.98 238.273L1585.51 238.402ZM1585.98 238.273L1586.47 238.196L1585.98 238.273Z" stroke="#9499B0" stroke-width="2"/>
<path d="M1614.92 238.196L1614.43 238.17M1614.43 238.17H1606.87H1614.43ZM1606.87 238.17L1606.38 238.196L1606.87 238.17ZM1606.38 238.196L1605.89 238.273L1606.38 238.196ZM1605.89 238.273L1605.42 238.402L1605.89 238.273ZM1605.42 238.402L1604.96 238.58L1605.42 238.402ZM1604.96 238.58L1604.52 238.804L1604.96 238.58ZM1604.52 238.804L1604.11 239.075L1604.52 238.804ZM1604.11 239.075L1603.73 239.386L1604.11 239.075ZM1603.73 239.386L1603.38 239.738L1603.73 239.386ZM1603.38 239.738L1603.07 240.124L1603.38 239.738ZM1603.07 240.124L1602.81 240.539L1603.07 240.124ZM1602.81 240.539L1602.58 240.981L1602.81 240.539ZM1602.58 240.981L1602.41 241.445L1602.58 240.981ZM1602.41 241.445L1602.28 241.924L1602.41 241.445ZM1602.28 241.924L1602.2 242.414L1602.28 241.924ZM1602.2 242.414L1602.18 242.909L1602.2 242.414ZM1602.18 242.909V247.834V242.909ZM1602.18 247.834L1602.2 248.33L1602.18 247.834ZM1602.2 248.33L1602.28 248.819L1602.2 248.33ZM1602.28 248.819L1602.41 249.299L1602.28 248.819ZM1602.41 249.299L1602.58 249.762L1602.41 249.299ZM1602.58 249.762L1602.81 250.204L1602.58 249.762ZM1602.81 250.204L1603.07 250.62L1602.81 250.204ZM1603.07 250.62L1603.38 251.005L1603.07 250.62ZM1603.38 251.005L1603.73 251.355L1603.38 251.005ZM1603.73 251.355L1604.11 251.668L1603.73 251.355ZM1604.11 251.668L1604.52 251.938L1604.11 251.668ZM1604.52 251.938L1604.96 252.164L1604.52 251.938ZM1604.96 252.164L1605.42 252.342L1604.96 252.164ZM1605.42 252.342L1605.89 252.469L1605.42 252.342ZM1605.89 252.469L1606.38 252.548L1605.89 252.469ZM1606.38 252.548L1606.87 252.574L1606.38 252.548ZM1606.87 252.574H1614.43H1606.87ZM1614.43 252.574L1614.92 252.548L1614.43 252.574ZM1614.92 252.548L1615.41 252.469L1614.92 252.548ZM1615.41 252.469L1615.88 252.342L1615.41 252.469ZM1615.88 252.342L1616.34 252.164L1615.88 252.342ZM1616.34 252.164L1616.78 251.938L1616.34 252.164ZM1616.78 251.938L1617.19 251.668L1616.78 251.938ZM1617.19 251.668L1617.57 251.355L1617.19 251.668ZM1617.57 251.355L1617.92 251.005L1617.57 251.355ZM1617.92 251.005L1618.23 250.62L1617.92 251.005ZM1618.23 250.62L1618.5 250.204L1618.23 250.62ZM1618.5 250.204L1618.72 249.762L1618.5 250.204ZM1618.72 249.762L1618.89 249.299L1618.72 249.762ZM1618.89 249.299L1619.02 248.819L1618.89 249.299ZM1619.02 248.819L1619.1 248.33L1619.02 248.819ZM1619.1 248.33L1619.12 247.834L1619.1 248.33ZM1619.12 247.834V242.909V247.834ZM1619.12 242.909L1619.1 242.414L1619.12 242.909ZM1619.1 242.414L1619.02 241.924L1619.1 242.414ZM1619.02 241.924L1618.89 241.445L1619.02 241.924ZM1618.89 241.445L1618.72 240.981L1618.89 241.445ZM1618.72 240.981L1618.5 240.539L1618.72 240.981ZM1618.5 240.539L1618.23 240.124L1618.5 240.539ZM1618.23 240.124L1617.92 239.738L1618.23 240.124ZM1617.92 239.738L1617.57 239.386L1617.92 239.738ZM1617.57 239.386L1617.19 239.075L1617.57 239.386ZM1617.19 239.075L1616.78 238.804L1617.19 239.075ZM1616.78 238.804L1616.34 238.58L1616.78 238.804ZM1616.34 238.58L1615.88 238.402L1616.34 238.58ZM1615.88 238.402L1615.41 238.273L1615.88 238.402ZM1615.41 238.273L1614.92 238.196L1615.41 238.273Z" stroke="#9499B0" stroke-width="2"/>
<path d="M1566.13 255.565L1566.62 255.539M1566.62 255.539H1574.19H1566.62ZM1574.19 255.539L1574.68 255.565L1574.19 255.539ZM1574.68 255.565L1575.16 255.644L1574.68 255.565ZM1575.16 255.644L1575.64 255.771L1575.16 255.644ZM1575.64 255.771L1576.09 255.949L1575.64 255.771ZM1576.09 255.949L1576.53 256.175L1576.09 255.949ZM1576.53 256.175L1576.94 256.445L1576.53 256.175ZM1576.94 256.445L1577.32 256.757L1576.94 256.445ZM1577.32 256.757L1577.67 257.108L1577.32 256.757ZM1577.67 257.108L1577.98 257.493L1577.67 257.108ZM1577.98 257.493L1578.25 257.909L1577.98 257.493ZM1578.25 257.909L1578.47 258.351L1578.25 257.909ZM1578.47 258.351L1578.65 258.814L1578.47 258.351ZM1578.65 258.814L1578.78 259.294L1578.65 258.814ZM1578.78 259.294L1578.85 259.783L1578.78 259.294ZM1578.85 259.783L1578.88 260.279L1578.85 259.783ZM1578.88 260.279V265.204V260.279ZM1578.88 265.204L1578.85 265.699L1578.88 265.204ZM1578.85 265.699L1578.78 266.189L1578.85 265.699ZM1578.78 266.189L1578.65 266.668L1578.78 266.189ZM1578.65 266.668L1578.47 267.132L1578.65 266.668ZM1578.47 267.132L1578.25 267.573L1578.47 267.132ZM1578.25 267.573L1577.98 267.989L1578.25 267.573ZM1577.98 267.989L1577.67 268.374L1577.98 267.989ZM1577.67 268.374L1577.32 268.726L1577.67 268.374ZM1577.32 268.726L1576.94 269.038L1577.32 268.726ZM1576.94 269.038L1576.53 269.309L1576.94 269.038ZM1576.53 269.309L1576.09 269.533L1576.53 269.309ZM1576.09 269.533L1575.64 269.711L1576.09 269.533ZM1575.64 269.711L1575.16 269.84L1575.64 269.711ZM1575.16 269.84L1574.68 269.917L1575.16 269.84ZM1574.68 269.917L1574.19 269.943L1574.68 269.917ZM1574.19 269.943H1566.62H1574.19ZM1566.62 269.943L1566.13 269.917L1566.62 269.943ZM1566.13 269.917L1565.65 269.84L1566.13 269.917ZM1565.65 269.84L1565.17 269.711L1565.65 269.84ZM1565.17 269.711L1564.71 269.533L1565.17 269.711ZM1564.71 269.533L1564.28 269.309L1564.71 269.533ZM1564.28 269.309L1563.87 269.038L1564.28 269.309ZM1563.87 269.038L1563.48 268.726L1563.87 269.038ZM1563.48 268.726L1563.14 268.374L1563.48 268.726ZM1563.14 268.374L1562.83 267.989L1563.14 268.374ZM1562.83 267.989L1562.56 267.573L1562.83 267.989ZM1562.56 267.573L1562.34 267.132L1562.56 267.573ZM1562.34 267.132L1562.16 266.668L1562.34 267.132ZM1562.16 266.668L1562.03 266.189L1562.16 266.668ZM1562.03 266.189L1561.96 265.699L1562.03 266.189ZM1561.96 265.699L1561.93 265.204L1561.96 265.699ZM1561.93 265.204V260.279V265.204ZM1561.93 260.279L1561.96 259.783L1561.93 260.279ZM1561.96 259.783L1562.03 259.294L1561.96 259.783ZM1562.03 259.294L1562.16 258.814L1562.03 259.294ZM1562.16 258.814L1562.34 258.351L1562.16 258.814ZM1562.34 258.351L1562.56 257.909L1562.34 258.351ZM1562.56 257.909L1562.83 257.493L1562.56 257.909ZM1562.83 257.493L1563.14 257.108L1562.83 257.493ZM1563.14 257.108L1563.48 256.757L1563.14 257.108ZM1563.48 256.757L1563.87 256.445L1563.48 256.757ZM1563.87 256.445L1564.28 256.175L1563.87 256.445ZM1564.28 256.175L1564.71 255.949L1564.28 256.175ZM1564.71 255.949L1565.17 255.771L1564.71 255.949ZM1565.17 255.771L1565.65 255.644L1565.17 255.771ZM1565.65 255.644L1566.13 255.565L1565.65 255.644Z" stroke="#9499B0" stroke-width="2"/>
<path d="M1586.47 255.565L1586.96 255.539M1586.96 255.539H1594.52H1586.96ZM1594.52 255.539L1595.01 255.565L1594.52 255.539ZM1595.01 255.565L1595.5 255.644L1595.01 255.565ZM1595.5 255.644L1595.97 255.771L1595.5 255.644ZM1595.97 255.771L1596.43 255.949L1595.97 255.771ZM1596.43 255.949L1596.87 256.175L1596.43 255.949ZM1596.87 256.175L1597.28 256.445L1596.87 256.175ZM1597.28 256.445L1597.66 256.757L1597.28 256.445ZM1597.66 256.757L1598.01 257.108L1597.66 256.757ZM1598.01 257.108L1598.32 257.493L1598.01 257.108ZM1598.32 257.493L1598.58 257.909L1598.32 257.493ZM1598.58 257.909L1598.81 258.351L1598.58 257.909ZM1598.81 258.351L1598.98 258.814L1598.81 258.351ZM1598.98 258.814L1599.11 259.294L1598.98 258.814ZM1599.11 259.294L1599.19 259.783L1599.11 259.294ZM1599.19 259.783L1599.21 260.279L1599.19 259.783ZM1599.21 260.279V265.204V260.279ZM1599.21 265.204L1599.19 265.699L1599.21 265.204ZM1599.19 265.699L1599.11 266.189L1599.19 265.699ZM1599.11 266.189L1598.98 266.668L1599.11 266.189ZM1598.98 266.668L1598.81 267.132L1598.98 266.668ZM1598.81 267.132L1598.58 267.573L1598.81 267.132ZM1598.58 267.573L1598.32 267.989L1598.58 267.573ZM1598.32 267.989L1598.01 268.374L1598.32 267.989ZM1598.01 268.374L1597.66 268.726L1598.01 268.374ZM1597.66 268.726L1597.28 269.038L1597.66 268.726ZM1597.28 269.038L1596.87 269.309L1597.28 269.038ZM1596.87 269.309L1596.43 269.533L1596.87 269.309ZM1596.43 269.533L1595.97 269.711L1596.43 269.533ZM1595.97 269.711L1595.5 269.84L1595.97 269.711ZM1595.5 269.84L1595.01 269.917L1595.5 269.84ZM1595.01 269.917L1594.52 269.943L1595.01 269.917ZM1594.52 269.943H1586.96H1594.52ZM1586.96 269.943L1586.47 269.917L1586.96 269.943ZM1586.47 269.917L1585.98 269.84L1586.47 269.917ZM1585.98 269.84L1585.51 269.711L1585.98 269.84ZM1585.51 269.711L1585.05 269.533L1585.51 269.711ZM1585.05 269.533L1584.61 269.309L1585.05 269.533ZM1584.61 269.309L1584.2 269.038L1584.61 269.309ZM1584.2 269.038L1583.82 268.726L1584.2 269.038ZM1583.82 268.726L1583.47 268.374L1583.82 268.726ZM1583.47 268.374L1583.16 267.989L1583.47 268.374ZM1583.16 267.989L1582.9 267.573L1583.16 267.989ZM1582.9 267.573L1582.67 267.132L1582.9 267.573ZM1582.67 267.132L1582.5 266.668L1582.67 267.132ZM1582.5 266.668L1582.37 266.189L1582.5 266.668ZM1582.37 266.189L1582.29 265.699L1582.37 266.189ZM1582.29 265.699L1582.27 265.204L1582.29 265.699ZM1582.27 265.204V260.279V265.204ZM1582.27 260.279L1582.29 259.783L1582.27 260.279ZM1582.29 259.783L1582.37 259.294L1582.29 259.783ZM1582.37 259.294L1582.5 258.814L1582.37 259.294ZM1582.5 258.814L1582.67 258.351L1582.5 258.814ZM1582.67 258.351L1582.9 257.909L1582.67 258.351ZM1582.9 257.909L1583.16 257.493L1582.9 257.909ZM1583.16 257.493L1583.47 257.108L1583.16 257.493ZM1583.47 257.108L1583.82 256.757L1583.47 257.108ZM1583.82 256.757L1584.2 256.445L1583.82 256.757ZM1584.2 256.445L1584.61 256.175L1584.2 256.445ZM1584.61 256.175L1585.05 255.949L1584.61 256.175ZM1585.05 255.949L1585.51 255.771L1585.05 255.949ZM1585.51 255.771L1585.98 255.644L1585.51 255.771ZM1585.98 255.644L1586.47 255.565L1585.98 255.644Z" stroke="#9499B0" stroke-width="2"/>
<path d="M1602.18 260.318V265.283M1619.12 265.283V260.318V265.283ZM1619.12 260.318L1619.1 259.818L1619.12 260.318ZM1619.1 259.818L1619.02 259.325L1619.1 259.818ZM1619.02 259.325L1618.89 258.841L1619.02 259.325ZM1618.89 258.841L1618.72 258.374L1618.89 258.841ZM1618.72 258.374L1618.5 257.928L1618.72 258.374ZM1618.5 257.928L1618.23 257.509L1618.5 257.928ZM1618.23 257.509L1617.92 257.121L1618.23 257.509ZM1617.92 257.121L1617.57 256.767L1617.92 257.121ZM1617.57 256.767L1617.19 256.452L1617.57 256.767ZM1617.19 256.452L1616.78 256.18L1617.19 256.452ZM1616.78 256.18L1616.34 255.953L1616.78 256.18ZM1616.34 255.953L1615.88 255.773L1616.34 255.953ZM1615.88 255.773L1615.41 255.644L1615.88 255.773ZM1615.41 255.644L1614.92 255.566L1615.41 255.644ZM1614.92 255.566L1614.43 255.539L1614.92 255.566ZM1614.43 255.539H1606.87H1614.43ZM1606.87 255.539L1606.38 255.566L1606.87 255.539ZM1606.38 255.566L1605.89 255.644L1606.38 255.566ZM1605.89 255.644L1605.42 255.773L1605.89 255.644ZM1605.42 255.773L1604.96 255.953L1605.42 255.773ZM1604.96 255.953L1604.52 256.18L1604.96 255.953ZM1604.52 256.18L1604.11 256.452L1604.52 256.18ZM1604.11 256.452L1603.73 256.767L1604.11 256.452ZM1603.73 256.767L1603.38 257.121L1603.73 256.767ZM1603.38 257.121L1603.07 257.509L1603.38 257.121ZM1603.07 257.509L1602.81 257.928L1603.07 257.509ZM1602.81 257.928L1602.58 258.374L1602.81 257.928ZM1602.58 258.374L1602.41 258.841L1602.58 258.374ZM1602.41 258.841L1602.28 259.325L1602.41 258.841ZM1602.28 259.325L1602.2 259.818L1602.28 259.325ZM1602.2 259.818L1602.18 260.318L1602.2 259.818Z" stroke="#9499B0" stroke-width="2"/>
<path d="M1566.13 287.287L1566.62 287.313M1566.62 287.313H1574.19H1566.62ZM1574.19 287.313L1574.68 287.287L1574.19 287.313ZM1574.68 287.287L1575.16 287.213L1574.68 287.287ZM1575.16 287.213L1575.64 287.088L1575.16 287.213ZM1575.64 287.088L1576.09 286.916L1575.64 287.088ZM1576.09 286.916L1576.53 286.697L1576.09 286.916ZM1576.53 286.697L1576.94 286.434L1576.53 286.697ZM1576.94 286.434L1577.32 286.132L1576.94 286.434ZM1577.32 286.132L1577.67 285.791L1577.32 286.132ZM1577.67 285.791L1577.98 285.417L1577.67 285.791ZM1577.98 285.417L1578.25 285.012L1577.98 285.417ZM1578.25 285.012L1578.47 284.583L1578.25 285.012ZM1578.47 284.583L1578.65 284.134L1578.47 284.583ZM1578.65 284.134L1578.78 283.67L1578.65 284.134ZM1578.78 283.67L1578.85 283.193L1578.78 283.67ZM1578.85 283.193L1578.88 282.712L1578.85 283.193ZM1578.88 282.712V277.933V282.712ZM1578.88 277.933L1578.85 277.452L1578.88 277.933ZM1578.85 277.452L1578.78 276.975L1578.85 277.452ZM1578.78 276.975L1578.65 276.51L1578.78 276.975ZM1578.65 276.51L1578.47 276.061L1578.65 276.51ZM1578.47 276.061L1578.25 275.633L1578.47 276.061ZM1578.25 275.633L1577.98 275.228L1578.25 275.633ZM1577.98 275.228L1577.67 274.854L1577.98 275.228ZM1577.67 274.854L1577.32 274.513L1577.67 274.854ZM1577.32 274.513L1576.94 274.21L1577.32 274.513ZM1576.94 274.21L1576.53 273.948L1576.94 274.21ZM1576.53 273.948L1576.09 273.729L1576.53 273.948ZM1576.09 273.729L1575.64 273.557L1576.09 273.729ZM1575.64 273.557L1575.16 273.432L1575.64 273.557ZM1575.16 273.432L1574.68 273.356L1575.16 273.432ZM1574.68 273.356L1574.19 273.332L1574.68 273.356ZM1574.19 273.332H1566.62H1574.19ZM1566.62 273.332L1566.13 273.356L1566.62 273.332ZM1566.13 273.356L1565.65 273.432L1566.13 273.356ZM1565.65 273.432L1565.17 273.557L1565.65 273.432ZM1565.17 273.557L1564.71 273.729L1565.17 273.557ZM1564.71 273.729L1564.28 273.948L1564.71 273.729ZM1564.28 273.948L1563.87 274.21L1564.28 273.948ZM1563.87 274.21L1563.48 274.513L1563.87 274.21ZM1563.48 274.513L1563.14 274.854L1563.48 274.513ZM1563.14 274.854L1562.83 275.228L1563.14 274.854ZM1562.83 275.228L1562.56 275.633L1562.83 275.228ZM1562.56 275.633L1562.34 276.061L1562.56 275.633ZM1562.34 276.061L1562.16 276.51L1562.34 276.061ZM1562.16 276.51L1562.03 276.975L1562.16 276.51ZM1562.03 276.975L1561.96 277.452L1562.03 276.975ZM1561.96 277.452L1561.93 277.933L1561.96 277.452ZM1561.93 277.933V282.712V277.933ZM1561.93 282.712L1561.96 283.193L1561.93 282.712ZM1561.96 283.193L1562.03 283.67L1561.96 283.193ZM1562.03 283.67L1562.16 284.134L1562.03 283.67ZM1562.16 284.134L1562.34 284.583L1562.16 284.134ZM1562.34 284.583L1562.56 285.012L1562.34 284.583ZM1562.56 285.012L1562.83 285.417L1562.56 285.012ZM1562.83 285.417L1563.14 285.791L1562.83 285.417ZM1563.14 285.791L1563.48 286.132L1563.14 285.791ZM1563.48 286.132L1563.87 286.434L1563.48 286.132ZM1563.87 286.434L1564.28 286.697L1563.87 286.434ZM1564.28 286.697L1564.71 286.916L1564.28 286.697ZM1564.71 286.916L1565.17 287.088L1564.71 286.916ZM1565.17 287.088L1565.65 287.213L1565.17 287.088ZM1565.65 287.213L1566.13 287.287L1565.65 287.213Z" stroke="#9499B0" stroke-width="2"/>
<path d="M1586.47 287.287L1586.96 287.313M1586.96 287.313H1594.52H1586.96ZM1594.52 287.313L1595.01 287.287L1594.52 287.313ZM1595.01 287.287L1595.5 287.213L1595.01 287.287ZM1595.5 287.213L1595.97 287.088L1595.5 287.213ZM1595.97 287.088L1596.43 286.916L1595.97 287.088ZM1596.43 286.916L1596.87 286.697L1596.43 286.916ZM1596.87 286.697L1597.28 286.434L1596.87 286.697ZM1597.28 286.434L1597.66 286.132L1597.28 286.434ZM1597.66 286.132L1598.01 285.791L1597.66 286.132ZM1598.01 285.791L1598.32 285.417L1598.01 285.791ZM1598.32 285.417L1598.58 285.012L1598.32 285.417ZM1598.58 285.012L1598.81 284.583L1598.58 285.012ZM1598.81 284.583L1598.98 284.134L1598.81 284.583ZM1598.98 284.134L1599.11 283.67L1598.98 284.134ZM1599.11 283.67L1599.19 283.193L1599.11 283.67ZM1599.19 283.193L1599.21 282.712L1599.19 283.193ZM1599.21 282.712V277.933V282.712ZM1599.21 277.933L1599.19 277.452L1599.21 277.933ZM1599.19 277.452L1599.11 276.975L1599.19 277.452ZM1599.11 276.975L1598.98 276.51L1599.11 276.975ZM1598.98 276.51L1598.81 276.061L1598.98 276.51ZM1598.81 276.061L1598.58 275.633L1598.81 276.061ZM1598.58 275.633L1598.32 275.228L1598.58 275.633ZM1598.32 275.228L1598.01 274.854L1598.32 275.228ZM1598.01 274.854L1597.66 274.513L1598.01 274.854ZM1597.66 274.513L1597.28 274.21L1597.66 274.513ZM1597.28 274.21L1596.87 273.948L1597.28 274.21ZM1596.87 273.948L1596.43 273.729L1596.87 273.948ZM1596.43 273.729L1595.97 273.557L1596.43 273.729ZM1595.97 273.557L1595.5 273.432L1595.97 273.557ZM1595.5 273.432L1595.01 273.356L1595.5 273.432ZM1595.01 273.356L1594.52 273.332L1595.01 273.356ZM1594.52 273.332H1586.96H1594.52ZM1586.96 273.332L1586.47 273.356L1586.96 273.332ZM1586.47 273.356L1585.98 273.432L1586.47 273.356ZM1585.98 273.432L1585.51 273.557L1585.98 273.432ZM1585.51 273.557L1585.05 273.729L1585.51 273.557ZM1585.05 273.729L1584.61 273.948L1585.05 273.729ZM1584.61 273.948L1584.2 274.21L1584.61 273.948ZM1584.2 274.21L1583.82 274.513L1584.2 274.21ZM1583.82 274.513L1583.47 274.854L1583.82 274.513ZM1583.47 274.854L1583.16 275.228L1583.47 274.854ZM1583.16 275.228L1582.9 275.633L1583.16 275.228ZM1582.9 275.633L1582.67 276.061L1582.9 275.633ZM1582.67 276.061L1582.5 276.51L1582.67 276.061ZM1582.5 276.51L1582.37 276.975L1582.5 276.51ZM1582.37 276.975L1582.29 277.452L1582.37 276.975ZM1582.29 277.452L1582.27 277.933L1582.29 277.452ZM1582.27 277.933V282.712V277.933ZM1582.27 282.712L1582.29 283.193L1582.27 282.712ZM1582.29 283.193L1582.37 283.67L1582.29 283.193ZM1582.37 283.67L1582.5 284.134L1582.37 283.67ZM1582.5 284.134L1582.67 284.583L1582.5 284.134ZM1582.67 284.583L1582.9 285.012L1582.67 284.583ZM1582.9 285.012L1583.16 285.417L1582.9 285.012ZM1583.16 285.417L1583.47 285.791L1583.16 285.417ZM1583.47 285.791L1583.82 286.132L1583.47 285.791ZM1583.82 286.132L1584.2 286.434L1583.82 286.132ZM1584.2 286.434L1584.61 286.697L1584.2 286.434ZM1584.61 286.697L1585.05 286.916L1584.61 286.697ZM1585.05 286.916L1585.51 287.088L1585.05 286.916ZM1585.51 287.088L1585.98 287.213L1585.51 287.088ZM1585.98 287.213L1586.47 287.287L1585.98 287.213Z" stroke="#9499B0" stroke-width="2"/>
<path d="M1602.18 282.62V264.012M1619.12 264.012V282.62V264.012ZM1619.12 282.62L1619.1 283.11L1619.12 282.62ZM1619.1 283.11L1619.02 283.596L1619.1 283.11ZM1619.02 283.596L1618.89 284.07L1619.02 283.596ZM1618.89 284.07L1618.72 284.529L1618.89 284.07ZM1618.72 284.529L1618.5 284.966L1618.72 284.529ZM1618.5 284.966L1618.23 285.379L1618.5 284.966ZM1618.23 285.379L1617.92 285.761L1618.23 285.379ZM1617.92 285.761L1617.57 286.108L1617.92 285.761ZM1617.57 286.108L1617.19 286.416L1617.57 286.108ZM1617.19 286.416L1616.78 286.684L1617.19 286.416ZM1616.78 286.684L1616.34 286.908L1616.78 286.684ZM1616.34 286.908L1615.88 287.083L1616.34 286.908ZM1615.88 287.083L1615.41 287.211L1615.88 287.083ZM1615.41 287.211L1614.92 287.287L1615.41 287.211ZM1614.92 287.287L1614.43 287.313L1614.92 287.287ZM1614.43 287.313H1606.87H1614.43ZM1606.87 287.313L1606.38 287.287L1606.87 287.313ZM1606.38 287.287L1605.89 287.211L1606.38 287.287ZM1605.89 287.211L1605.42 287.083L1605.89 287.211ZM1605.42 287.083L1604.96 286.908L1605.42 287.083ZM1604.96 286.908L1604.52 286.684L1604.96 286.908ZM1604.52 286.684L1604.11 286.416L1604.52 286.684ZM1604.11 286.416L1603.73 286.108L1604.11 286.416ZM1603.73 286.108L1603.38 285.761L1603.73 286.108ZM1603.38 285.761L1603.07 285.379L1603.38 285.761ZM1603.07 285.379L1602.81 284.966L1603.07 285.379ZM1602.81 284.966L1602.58 284.529L1602.81 284.966ZM1602.58 284.529L1602.41 284.07L1602.58 284.529ZM1602.41 284.07L1602.28 283.596L1602.41 284.07ZM1602.28 283.596L1602.2 283.11L1602.28 283.596ZM1602.2 283.11L1602.18 282.62L1602.2 283.11Z" stroke="#9499B0" stroke-width="2"/>
<path d="M1607.24 217.435L1607.64 217.411M1607.64 217.411H1609.42H1607.64ZM1609.42 217.411L1609.82 217.435L1609.42 217.411ZM1609.82 217.435L1610.22 217.508L1609.82 217.435ZM1610.22 217.508L1610.61 217.627L1610.22 217.508ZM1610.61 217.627L1610.98 217.791L1610.61 217.627ZM1610.98 217.791L1611.32 217.998L1610.98 217.791ZM1611.32 217.998L1611.64 218.244L1611.32 217.998ZM1611.64 218.244L1611.93 218.528L1611.64 218.244ZM1611.93 218.528L1612.18 218.842L1611.93 218.528ZM1612.18 218.842L1612.38 219.184L1612.18 218.842ZM1612.38 219.184L1612.55 219.549L1612.38 219.184ZM1612.55 219.549L1612.67 219.931L1612.55 219.549ZM1612.67 219.931L1612.74 220.325L1612.67 219.931ZM1612.74 220.325L1612.77 220.724L1612.74 220.325ZM1612.77 220.724V225.538V220.724ZM1612.77 225.538L1612.74 225.938L1612.77 225.538ZM1612.74 225.938L1612.67 226.33L1612.74 225.938ZM1612.67 226.33L1612.55 226.713L1612.67 226.33ZM1612.55 226.713L1612.38 227.077L1612.55 226.713ZM1612.38 227.077L1612.18 227.418L1612.38 227.077ZM1612.18 227.418L1611.93 227.734L1612.18 227.418ZM1611.93 227.734L1611.64 228.016L1611.93 227.734ZM1611.64 228.016L1611.32 228.263L1611.64 228.016ZM1611.32 228.263L1610.98 228.47L1611.32 228.263ZM1610.98 228.47L1610.61 228.634L1610.98 228.47ZM1610.61 228.634L1610.22 228.753L1610.61 228.634ZM1610.22 228.753L1609.82 228.825L1610.22 228.753ZM1609.82 228.825L1609.42 228.85L1609.82 228.825ZM1609.42 228.85H1607.64H1609.42ZM1607.64 228.85L1607.24 228.825L1607.64 228.85ZM1607.24 228.825L1606.84 228.753L1607.24 228.825ZM1606.84 228.753L1606.46 228.634L1606.84 228.753ZM1606.46 228.634L1606.09 228.47L1606.46 228.634ZM1606.09 228.47L1605.74 228.263L1606.09 228.47ZM1605.74 228.263L1605.42 228.016L1605.74 228.263ZM1605.42 228.016L1605.14 227.734L1605.42 228.016ZM1605.14 227.734L1604.89 227.418L1605.14 227.734ZM1604.89 227.418L1604.68 227.077L1604.89 227.418ZM1604.68 227.077L1604.51 226.713L1604.68 227.077ZM1604.51 226.713L1604.39 226.33L1604.51 226.713ZM1604.39 226.33L1604.32 225.938L1604.39 226.33ZM1604.32 225.938L1604.3 225.538L1604.32 225.938ZM1604.3 225.538V220.724V225.538ZM1604.3 220.724L1604.32 220.325L1604.3 220.724ZM1604.32 220.325L1604.39 219.931L1604.32 220.325ZM1604.39 219.931L1604.51 219.549L1604.39 219.931ZM1604.51 219.549L1604.68 219.184L1604.51 219.549ZM1604.68 219.184L1604.89 218.842L1604.68 219.184ZM1604.89 218.842L1605.14 218.528L1604.89 218.842ZM1605.14 218.528L1605.42 218.244L1605.14 218.528ZM1605.42 218.244L1605.74 217.998L1605.42 218.244ZM1605.74 217.998L1606.09 217.791L1605.74 217.998ZM1606.09 217.791L1606.46 217.627L1606.09 217.791ZM1606.46 217.627L1606.84 217.508L1606.46 217.627ZM1606.84 217.508L1607.24 217.435L1606.84 217.508Z" stroke="#9499B0" stroke-width="2"/>
<path d="M117 429.655V403.988" stroke="#9499B0" stroke-width="2"/>
<path d="M117.022 403.759L117 403.988M118.168 402.819L117.941 402.842L118.168 402.819ZM117.941 402.842L117.722 402.908L117.941 402.842ZM117.722 402.908L117.52 403.016L117.722 402.908ZM117.52 403.016L117.342 403.161L117.52 403.016ZM117.342 403.161L117.198 403.338L117.342 403.161ZM117.198 403.338L117.089 403.54L117.198 403.338ZM117.089 403.54L117.022 403.759L117.089 403.54Z" stroke="#9499B0" stroke-width="2"/>
<path d="M118.168 402.819H133.155" stroke="#9499B0" stroke-width="2"/>
<path d="M133.155 402.819V400.891" stroke="#9499B0" stroke-width="2"/>
<path d="M133.178 400.662L133.155 400.891M134.324 399.722L134.095 399.745L134.324 399.722ZM134.095 399.745L133.876 399.811L134.095 399.745ZM133.876 399.811L133.674 399.919L133.876 399.811ZM133.674 399.919L133.497 400.064L133.674 399.919ZM133.497 400.064L133.352 400.242L133.497 400.064ZM133.352 400.242L133.244 400.443L133.352 400.242ZM133.244 400.443L133.178 400.662L133.244 400.443Z" stroke="#9499B0" stroke-width="2"/>
<path d="M134.324 399.722H139.286" stroke="#9499B0" stroke-width="2"/>
<path d="M139.286 399.722V397.991" stroke="#9499B0" stroke-width="2"/>
<path d="M139.309 397.764L139.286 397.991M140.455 396.823L140.228 396.845L140.455 396.823ZM140.228 396.845L140.009 396.912L140.228 396.845ZM140.009 396.912L139.806 397.019L140.009 396.912ZM139.806 397.019L139.629 397.165L139.806 397.019ZM139.629 397.165L139.484 397.343L139.629 397.165ZM139.484 397.343L139.375 397.544L139.484 397.343ZM139.375 397.544L139.309 397.764L139.375 397.544Z" stroke="#9499B0" stroke-width="2"/>
<path d="M140.455 396.823H160.201" stroke="#9499B0" stroke-width="2"/>
<path d="M179.945 396.823H160.201M203.4 429.655V403.988V429.655ZM203.4 403.988L203.378 403.759L203.4 403.988ZM203.378 403.759L203.311 403.54L203.378 403.759ZM203.311 403.54L203.204 403.338L203.311 403.54ZM203.204 403.338L203.058 403.161L203.204 403.338ZM203.058 403.161L202.88 403.016L203.058 403.161ZM202.88 403.016L202.679 402.908L202.88 403.016ZM202.679 402.908L202.459 402.842L202.679 402.908ZM202.459 402.842L202.232 402.819L202.459 402.842ZM202.232 402.819H187.246H202.232ZM187.246 402.819V400.891V402.819ZM187.246 400.891L187.224 400.662L187.246 400.891ZM187.224 400.662L187.156 400.443L187.224 400.662ZM187.156 400.443L187.048 400.242L187.156 400.443ZM187.048 400.242L186.904 400.064L187.048 400.242ZM186.904 400.064L186.726 399.919L186.904 400.064ZM186.726 399.919L186.524 399.811L186.726 399.919ZM186.524 399.811L186.305 399.745L186.524 399.811ZM186.305 399.745L186.078 399.722L186.305 399.745ZM186.078 399.722H181.114H186.078ZM181.114 399.722V397.991V399.722ZM181.114 397.991L181.091 397.764L181.114 397.991ZM181.091 397.764L181.025 397.544L181.091 397.764ZM181.025 397.544L180.917 397.343L181.025 397.544ZM180.917 397.343L180.772 397.165L180.917 397.343ZM180.772 397.165L180.594 397.019L180.772 397.165ZM180.594 397.019L180.393 396.912L180.594 397.019ZM180.393 396.912L180.174 396.845L180.393 396.912ZM180.174 396.845L179.945 396.823L180.174 396.845Z" stroke="#9499B0" stroke-width="2"/>
<path d="M151.195 396.87V390.572M151.195 390.572H169.274H151.195ZM169.274 390.572V396.87V390.572ZM169.274 396.87H151.195H169.274Z" stroke="#9499B0" stroke-width="2"/>
<path d="M176.285 383.553L184.905 373.664M148.918 384.554H174.083H148.918ZM174.083 384.554L174.439 384.532L174.083 384.554ZM174.439 384.532L174.788 384.468L174.439 384.532ZM174.788 384.468L175.128 384.36L174.788 384.468ZM175.128 384.36L175.453 384.213L175.128 384.36ZM175.453 384.213L175.757 384.028L175.453 384.213ZM175.757 384.028L176.035 383.806L175.757 384.028ZM176.035 383.806L176.285 383.553L176.035 383.806Z" stroke="#9499B0" stroke-width="2"/>
<path d="M155.165 372.685L155.392 372.662M155.392 372.662H165.038H155.392ZM165.038 372.662L165.266 372.685L165.038 372.662ZM165.266 372.685L165.486 372.751L165.266 372.685ZM165.486 372.751L165.688 372.86L165.486 372.751ZM165.688 372.86L165.864 373.005L165.688 372.86ZM165.864 373.005L166.01 373.182L165.864 373.005ZM166.01 373.182L166.118 373.385L166.01 373.182ZM166.118 373.385L166.184 373.604L166.118 373.385ZM166.184 373.604L166.206 373.831L166.184 373.604ZM166.206 373.831V378.836V373.831ZM166.206 378.836H154.223H166.206ZM154.223 378.836V373.831V378.836ZM154.223 373.831L154.246 373.604L154.223 373.831ZM154.246 373.604L154.313 373.385L154.246 373.604ZM154.313 373.385L154.421 373.182L154.313 373.385ZM154.421 373.182L154.565 373.005L154.421 373.182ZM154.565 373.005L154.743 372.86L154.565 373.005ZM154.743 372.86L154.945 372.751L154.743 372.86ZM154.945 372.751L155.165 372.685L154.945 372.751Z" stroke="#9499B0" stroke-width="2"/>
<path d="M211.175 368.119V371.365M148.918 384.554V390.572V384.554ZM148.918 390.572H171.691H148.918ZM171.691 390.572V384.554V390.572ZM171.691 384.554H151.174H171.691ZM151.174 384.554L150.822 384.533L151.174 384.554ZM150.822 384.533L150.475 384.469L150.822 384.533ZM150.475 384.469L150.138 384.364L150.475 384.469ZM150.138 384.364L149.817 384.219L150.138 384.364ZM149.817 384.219L149.515 384.037L149.817 384.219ZM149.515 384.037L149.237 383.819L149.515 384.037ZM149.237 383.819L148.987 383.571L149.237 383.819ZM148.987 383.571L148.77 383.292L148.987 383.571ZM148.77 383.292L148.588 382.991L148.77 383.292ZM148.588 382.991L148.442 382.669L148.588 382.991ZM148.442 382.669L148.338 382.332L148.442 382.669ZM148.338 382.332L148.274 381.985L148.338 382.332ZM148.274 381.985L148.253 381.633L148.274 381.985ZM148.253 381.633V381.715V381.633ZM148.253 381.715L148.274 381.364L148.253 381.715ZM148.274 381.364L148.338 381.017L148.274 381.364ZM148.338 381.017L148.442 380.68L148.338 381.017ZM148.442 380.68L148.588 380.359L148.442 380.68ZM148.588 380.359L148.77 380.057L148.588 380.359ZM148.77 380.057L148.987 379.779L148.77 380.057ZM148.987 379.779L149.237 379.53L148.987 379.779ZM149.237 379.53L149.515 379.312L149.237 379.53ZM149.515 379.312L149.817 379.13L149.515 379.312ZM149.817 379.13L150.138 378.984L149.817 379.13ZM150.138 378.984L150.475 378.88L150.138 378.984ZM150.475 378.88L150.822 378.816L150.475 378.88ZM150.822 378.816L151.174 378.795L150.822 378.816ZM151.174 378.795H170.947H151.174ZM170.947 378.795L171.298 378.774L170.947 378.795ZM171.298 378.774L171.645 378.71L171.298 378.774ZM171.645 378.71L171.981 378.605L171.645 378.71ZM171.981 378.605L172.303 378.461L171.981 378.605ZM172.303 378.461L172.605 378.279L172.303 378.461ZM172.605 378.279L172.883 378.061L172.605 378.279ZM172.883 378.061L173.132 377.811L172.883 378.061ZM173.132 377.811L182.004 367.804L173.132 377.811ZM182.004 367.804L182.253 367.555L182.004 367.804ZM182.253 367.555L182.531 367.337L182.253 367.555ZM182.531 367.337L182.833 367.155L182.531 367.337ZM182.833 367.155L183.154 367.011L182.833 367.155ZM183.154 367.011L183.491 366.905L183.154 367.011ZM183.491 366.905L183.838 366.841L183.491 366.905ZM183.838 366.841L184.189 366.82L183.838 366.841ZM184.189 366.82H209.876H184.189ZM209.876 366.82L210.101 366.84L209.876 366.82ZM210.101 366.84L210.32 366.899L210.101 366.84ZM210.32 366.899L210.525 366.994L210.32 366.899ZM210.525 366.994L210.711 367.124L210.525 366.994ZM210.711 367.124L210.87 367.284L210.711 367.124ZM210.87 367.284L211.001 367.47L210.87 367.284ZM211.001 367.47L211.095 367.675L211.001 367.47ZM211.095 367.675L211.154 367.894L211.095 367.675ZM211.154 367.894L211.175 368.119L211.154 367.894Z" stroke="#9499B0" stroke-width="2"/>
<path d="M172.261 384.554H173.547" stroke="#9499B0" stroke-width="2"/>
<path d="M173.546 384.554H174.349" stroke="#9499B0" stroke-width="2"/>
<path d="M185.154 373.411L184.905 373.664M187.107 372.662L186.751 372.685L187.107 372.662ZM186.751 372.685L186.401 372.749L186.751 372.685ZM186.401 372.749L186.061 372.857L186.401 372.749ZM186.061 372.857L185.737 373.003L186.061 372.857ZM185.737 373.003L185.434 373.189L185.737 373.003ZM185.434 373.189L185.154 373.411L185.434 373.189Z" stroke="#9499B0" stroke-width="2"/>
<path d="M187.107 372.662H209.876" stroke="#9499B0" stroke-width="2"/>
<path d="M211.155 371.59L211.175 371.365M209.876 372.662L210.101 372.643L209.876 372.662ZM210.101 372.643L210.32 372.584L210.101 372.643ZM210.32 372.584L210.525 372.488L210.32 372.584ZM210.525 372.488L210.711 372.359L210.525 372.488ZM210.711 372.359L210.87 372.2L210.711 372.359ZM210.87 372.2L211.001 372.014L210.87 372.2ZM211.001 372.014L211.095 371.809L211.001 372.014ZM211.095 371.809L211.155 371.59L211.095 371.809Z" stroke="#9499B0" stroke-width="2"/>
<path d="M179.945 436.82H140.455M203.4 403.988V429.655V403.988ZM203.4 429.655L203.378 429.884L203.4 429.655ZM203.378 429.884L203.311 430.103L203.378 429.884ZM203.311 430.103L203.204 430.304L203.311 430.103ZM203.204 430.304L203.058 430.482L203.204 430.304ZM203.058 430.482L202.88 430.627L203.058 430.482ZM202.88 430.627L202.679 430.735L202.88 430.627ZM202.679 430.735L202.459 430.801L202.679 430.735ZM202.459 430.801L202.232 430.824L202.459 430.801ZM202.232 430.824H187.246H202.232ZM187.246 430.824V432.752V430.824ZM187.246 432.752L187.224 432.98L187.246 432.752ZM187.224 432.98L187.156 433.199L187.224 432.98ZM187.156 433.199L187.048 433.401L187.156 433.199ZM187.048 433.401L186.904 433.579L187.048 433.401ZM186.904 433.579L186.726 433.723L186.904 433.579ZM186.726 433.723L186.524 433.832L186.726 433.723ZM186.524 433.832L186.305 433.898L186.524 433.832ZM186.305 433.898L186.078 433.921L186.305 433.898ZM186.078 433.921H181.114H186.078ZM181.114 433.921V435.652V433.921ZM181.114 435.652L181.091 435.879L181.114 435.652ZM181.091 435.879L181.025 436.098L181.091 435.879ZM181.025 436.098L180.917 436.3L181.025 436.098ZM180.917 436.3L180.772 436.477L180.917 436.3ZM180.772 436.477L180.594 436.622L180.772 436.477ZM180.594 436.622L180.393 436.73L180.594 436.622ZM180.393 436.73L180.174 436.798L180.393 436.73ZM180.174 436.798L179.945 436.82L180.174 436.798Z" stroke="#9499B0" stroke-width="2"/>
<path d="M187.246 402.819V430.824" stroke="#9499B0" stroke-width="2"/>
<path d="M181.114 399.722V433.921" stroke="#9499B0" stroke-width="2"/>
<path d="M133.155 430.824V402.819" stroke="#9499B0" stroke-width="2"/>
<path d="M139.286 399.722V433.921" stroke="#9499B0" stroke-width="2"/>
<path d="M117.941 430.801L118.168 430.824M117 429.655L117.022 429.884L117 429.655ZM117.022 429.884L117.089 430.103L117.022 429.884ZM117.089 430.103L117.198 430.304L117.089 430.103ZM117.198 430.304L117.342 430.482L117.198 430.304ZM117.342 430.482L117.52 430.627L117.342 430.482ZM117.52 430.627L117.722 430.735L117.52 430.627ZM117.722 430.735L117.941 430.801L117.722 430.735Z" stroke="#9499B0" stroke-width="2"/>
<path d="M118.168 430.824H133.155" stroke="#9499B0" stroke-width="2"/>
<path d="M133.155 430.824V432.752" stroke="#9499B0" stroke-width="2"/>
<path d="M134.095 433.898L134.324 433.921M133.155 432.752L133.178 432.98L133.155 432.752ZM133.178 432.98L133.244 433.199L133.178 432.98ZM133.244 433.199L133.352 433.401L133.244 433.199ZM133.352 433.401L133.497 433.579L133.352 433.401ZM133.497 433.579L133.674 433.723L133.497 433.579ZM133.674 433.723L133.876 433.832L133.674 433.723ZM133.876 433.832L134.095 433.898L133.876 433.832Z" stroke="#9499B0" stroke-width="2"/>
<path d="M134.324 433.921H139.286" stroke="#9499B0" stroke-width="2"/>
<path d="M139.286 433.921V435.652" stroke="#9499B0" stroke-width="2"/>
<path d="M140.228 436.798L140.455 436.82M139.286 435.652L139.309 435.879L139.286 435.652ZM139.309 435.879L139.375 436.098L139.309 435.879ZM139.375 436.098L139.484 436.3L139.375 436.098ZM139.484 436.3L139.629 436.477L139.484 436.3ZM139.629 436.477L139.806 436.622L139.629 436.477ZM139.806 436.622L140.009 436.73L139.806 436.622ZM140.009 436.73L140.228 436.798L140.009 436.73Z" stroke="#9499B0" stroke-width="2"/>
<path d="M1461 84.7555V56.1876" stroke="#9499B0" stroke-width="2"/>
<path d="M1461.03 55.9333L1461 56.1876M1462.3 54.8871L1462.05 54.9121L1462.3 54.8871ZM1462.05 54.9121L1461.8 54.9859L1462.05 54.9121ZM1461.8 54.9859L1461.58 55.1058L1461.8 54.9859ZM1461.58 55.1058L1461.38 55.2679L1461.58 55.1058ZM1461.38 55.2679L1461.22 55.4642L1461.38 55.2679ZM1461.22 55.4642L1461.1 55.6895L1461.22 55.4642ZM1461.1 55.6895L1461.03 55.9333L1461.1 55.6895Z" stroke="#9499B0" stroke-width="2"/>
<path d="M1462.3 54.8871H1478.98" stroke="#9499B0" stroke-width="2"/>
<path d="M1478.98 54.8871V52.7406" stroke="#9499B0" stroke-width="2"/>
<path d="M1479.01 52.4863L1478.98 52.7406M1480.28 51.4401L1480.03 51.4652L1480.28 51.4401ZM1480.03 51.4652L1479.78 51.5389L1480.03 51.4652ZM1479.78 51.5389L1479.56 51.6589L1479.78 51.5389ZM1479.56 51.6589L1479.36 51.8209L1479.56 51.6589ZM1479.36 51.8209L1479.2 52.0186L1479.36 51.8209ZM1479.2 52.0186L1479.08 52.2426L1479.2 52.0186ZM1479.08 52.2426L1479.01 52.4863L1479.08 52.2426Z" stroke="#9499B0" stroke-width="2"/>
<path d="M1480.28 51.4401H1485.8" stroke="#9499B0" stroke-width="2"/>
<path d="M1485.8 51.4401V49.5137" stroke="#9499B0" stroke-width="2"/>
<path d="M1485.83 49.2607L1485.8 49.5137M1487.11 48.2132L1486.85 48.2382L1487.11 48.2132ZM1486.85 48.2382L1486.61 48.312L1486.85 48.2382ZM1486.61 48.312L1486.38 48.4319L1486.61 48.312ZM1486.38 48.4319L1486.19 48.594L1486.38 48.4319ZM1486.19 48.594L1486.02 48.7916L1486.19 48.594ZM1486.02 48.7916L1485.9 49.0156L1486.02 48.7916ZM1485.9 49.0156L1485.83 49.2607L1485.9 49.0156Z" stroke="#9499B0" stroke-width="2"/>
<path d="M1487.11 48.2132H1509.08" stroke="#9499B0" stroke-width="2"/>
<path d="M1531.06 48.2132H1509.08M1557.16 84.7556V56.1876V84.7556ZM1557.16 56.1876L1557.14 55.9333L1557.16 56.1876ZM1557.14 55.9333L1557.06 55.6895L1557.14 55.9333ZM1557.06 55.6895L1556.94 55.4642L1557.06 55.6895ZM1556.94 55.4642L1556.78 55.2679L1556.94 55.4642ZM1556.78 55.2679L1556.58 55.1058L1556.78 55.2679ZM1556.58 55.1058L1556.36 54.9859L1556.58 55.1058ZM1556.36 54.9859L1556.12 54.9121L1556.36 54.9859ZM1556.12 54.9121L1555.86 54.8871L1556.12 54.9121ZM1555.86 54.8871H1539.18H1555.86ZM1539.18 54.8871V52.7406V54.8871ZM1539.18 52.7406L1539.16 52.4863L1539.18 52.7406ZM1539.16 52.4863L1539.08 52.2426L1539.16 52.4863ZM1539.08 52.2426L1538.96 52.0186L1539.08 52.2426ZM1538.96 52.0186L1538.8 51.8209L1538.96 52.0186ZM1538.8 51.8209L1538.61 51.6588L1538.8 51.8209ZM1538.61 51.6588L1538.38 51.5389L1538.61 51.6588ZM1538.38 51.5389L1538.14 51.4652L1538.38 51.5389ZM1538.14 51.4652L1537.88 51.4401L1538.14 51.4652ZM1537.88 51.4401H1532.36H1537.88ZM1532.36 51.4401V49.5137V51.4401ZM1532.36 49.5137L1532.33 49.2607L1532.36 49.5137ZM1532.33 49.2607L1532.26 49.0156L1532.33 49.2607ZM1532.26 49.0156L1532.14 48.7916L1532.26 49.0156ZM1532.14 48.7916L1531.98 48.594L1532.14 48.7916ZM1531.98 48.594L1531.78 48.4319L1531.98 48.594ZM1531.78 48.4319L1531.56 48.312L1531.78 48.4319ZM1531.56 48.312L1531.31 48.2382L1531.56 48.312ZM1531.31 48.2382L1531.06 48.2132L1531.31 48.2382Z" stroke="#9499B0" stroke-width="2"/>
<path d="M1499.06 48.2659V41.256M1499.06 41.256H1519.18H1499.06ZM1519.18 41.256V48.2659V41.256ZM1519.18 48.2659H1499.06H1519.18Z" stroke="#9499B0" stroke-width="2"/>
<path d="M1526.98 33.4437L1536.58 22.4374M1496.53 34.5584H1524.53H1496.53ZM1524.53 34.5584L1524.93 34.5334L1524.53 34.5584ZM1524.93 34.5334L1525.32 34.4622L1524.93 34.5334ZM1525.32 34.4622L1525.7 34.3423L1525.32 34.4622ZM1525.7 34.3423L1526.06 34.1789L1525.7 34.3423ZM1526.06 34.1789L1526.4 33.9721L1526.06 34.1789ZM1526.4 33.9721L1526.71 33.7257L1526.4 33.9721ZM1526.71 33.7257L1526.98 33.4437L1526.71 33.7257Z" stroke="#9499B0" stroke-width="2"/>
<path d="M1503.48 21.3476L1503.73 21.3226M1503.73 21.3226H1514.47H1503.73ZM1514.47 21.3226L1514.72 21.3476L1514.47 21.3226ZM1514.72 21.3476L1514.96 21.4214L1514.72 21.3476ZM1514.96 21.4214L1515.19 21.5426L1514.96 21.4214ZM1515.19 21.5426L1515.39 21.7034L1515.19 21.5426ZM1515.39 21.7034L1515.55 21.901L1515.39 21.7034ZM1515.55 21.901L1515.67 22.1263L1515.55 21.901ZM1515.67 22.1263L1515.74 22.3701L1515.67 22.1263ZM1515.74 22.3701L1515.77 22.6231L1515.74 22.3701ZM1515.77 22.6231V28.1941V22.6231ZM1515.77 28.1941H1502.43H1515.77ZM1502.43 28.1941V22.6231V28.1941ZM1502.43 22.6231L1502.45 22.3701L1502.43 22.6231ZM1502.45 22.3701L1502.53 22.1263L1502.45 22.3701ZM1502.53 22.1263L1502.65 21.901L1502.53 22.1263ZM1502.65 21.901L1502.81 21.7034L1502.65 21.901ZM1502.81 21.7034L1503.01 21.5426L1502.81 21.7034ZM1503.01 21.5426L1503.23 21.4214L1503.01 21.5426ZM1503.23 21.4214L1503.48 21.3476L1503.23 21.4214Z" stroke="#9499B0" stroke-width="2"/>
<path d="M1565.82 16.2655V19.8785M1496.53 34.5584V41.256V34.5584ZM1496.53 41.256H1521.87H1496.53ZM1521.87 41.256V34.5584V41.256ZM1521.87 34.5584H1499.04H1521.87ZM1499.04 34.5584L1498.64 34.5347L1499.04 34.5584ZM1498.64 34.5347L1498.26 34.4635L1498.64 34.5347ZM1498.26 34.4635L1497.88 34.3462L1498.26 34.4635ZM1497.88 34.3462L1497.53 34.1855L1497.88 34.3462ZM1497.53 34.1855L1497.19 33.9826L1497.53 34.1855ZM1497.19 33.9826L1496.88 33.7401L1497.19 33.9826ZM1496.88 33.7401L1496.6 33.4634L1496.88 33.7401ZM1496.6 33.4634L1496.36 33.1538L1496.6 33.4634ZM1496.36 33.1538L1496.16 32.8178L1496.36 33.1538ZM1496.16 32.8178L1496 32.4594L1496.16 32.8178ZM1496 32.4594L1495.88 32.0852L1496 32.4594ZM1495.88 32.0852L1495.81 31.6991L1495.88 32.0852ZM1495.81 31.6991L1495.78 31.3064L1495.81 31.6991ZM1495.78 31.3064V31.3987V31.3064ZM1495.78 31.3987L1495.81 31.0073L1495.78 31.3987ZM1495.81 31.0073L1495.88 30.6213L1495.81 31.0073ZM1495.88 30.6213L1496 30.2457L1495.88 30.6213ZM1496 30.2457L1496.16 29.8886L1496 30.2457ZM1496.16 29.8886L1496.36 29.5526L1496.16 29.8886ZM1496.36 29.5526L1496.6 29.243L1496.36 29.5526ZM1496.6 29.243L1496.88 28.9663L1496.6 29.243ZM1496.88 28.9663L1497.19 28.7238L1496.88 28.9663ZM1497.19 28.7238L1497.53 28.5209L1497.19 28.7238ZM1497.53 28.5209L1497.88 28.3588L1497.53 28.5209ZM1497.88 28.3588L1498.26 28.2429L1497.88 28.3588ZM1498.26 28.2429L1498.64 28.1717L1498.26 28.2429ZM1498.64 28.1717L1499.04 28.148L1498.64 28.1717ZM1499.04 28.148H1521.04H1499.04ZM1521.04 28.148L1521.43 28.1243L1521.04 28.148ZM1521.43 28.1243L1521.82 28.0532L1521.43 28.1243ZM1521.82 28.0532L1522.19 27.9372L1521.82 28.0532ZM1522.19 27.9372L1522.55 27.7764L1522.19 27.9372ZM1522.55 27.7764L1522.89 27.5735L1522.55 27.7764ZM1522.89 27.5735L1523.2 27.3311L1522.89 27.5735ZM1523.2 27.3311L1523.47 27.0531L1523.2 27.3311ZM1523.47 27.0531L1533.35 15.915L1523.47 27.0531ZM1533.35 15.915L1533.63 15.6383L1533.35 15.915ZM1533.63 15.6383L1533.94 15.3958L1533.63 15.6383ZM1533.94 15.3958L1534.27 15.1929L1533.94 15.3958ZM1534.27 15.1929L1534.63 15.0321L1534.27 15.1929ZM1534.63 15.0321L1535 14.9149L1534.63 15.0321ZM1535 14.9149L1535.39 14.8437L1535 14.9149ZM1535.39 14.8437L1535.78 14.82L1535.39 14.8437ZM1535.78 14.82H1564.37H1535.78ZM1564.37 14.82L1564.62 14.8424L1564.37 14.82ZM1564.62 14.8424L1564.86 14.9083L1564.62 14.8424ZM1564.86 14.9083L1565.09 15.0137L1564.86 14.9083ZM1565.09 15.0137L1565.3 15.1586L1565.09 15.0137ZM1565.3 15.1586L1565.48 15.3365L1565.3 15.1586ZM1565.48 15.3365L1565.62 15.5434L1565.48 15.3365ZM1565.62 15.5434L1565.73 15.7713L1565.62 15.5434ZM1565.73 15.7713L1565.79 16.0151L1565.73 15.7713ZM1565.79 16.0151L1565.82 16.2655L1565.79 16.0151Z" stroke="#9499B0" stroke-width="2"/>
<path d="M1522.51 34.5583H1523.94" stroke="#9499B0" stroke-width="2"/>
<path d="M1523.94 34.5583H1524.83" stroke="#9499B0" stroke-width="2"/>
<path d="M1536.86 22.1553L1536.58 22.4373M1539.03 21.3226L1538.63 21.3476L1539.03 21.3226ZM1538.63 21.3476L1538.24 21.4188L1538.63 21.3476ZM1538.24 21.4188L1537.87 21.5387L1538.24 21.4188ZM1537.87 21.5387L1537.5 21.7021L1537.87 21.5387ZM1537.5 21.7021L1537.17 21.9089L1537.5 21.7021ZM1537.17 21.9089L1536.86 22.1553L1537.17 21.9089Z" stroke="#9499B0" stroke-width="2"/>
<path d="M1539.03 21.3226H1564.37" stroke="#9499B0" stroke-width="2"/>
<path d="M1565.79 20.1288L1565.82 19.8785M1564.37 21.3226L1564.62 21.3015L1564.37 21.3226ZM1564.62 21.3015L1564.86 21.2357L1564.62 21.3015ZM1564.86 21.2357L1565.09 21.1289L1564.86 21.2357ZM1565.09 21.1289L1565.3 20.9853L1565.09 21.1289ZM1565.3 20.9853L1565.48 20.8074L1565.3 20.9853ZM1565.48 20.8074L1565.62 20.6006L1565.48 20.8074ZM1565.62 20.6006L1565.73 20.3726L1565.62 20.6006ZM1565.73 20.3726L1565.79 20.1288L1565.73 20.3726Z" stroke="#9499B0" stroke-width="2"/>
<path d="M1531.06 92.7299H1487.11M1557.16 56.1876V84.7555V56.1876ZM1557.16 84.7555L1557.14 85.0098L1557.16 84.7555ZM1557.14 85.0098L1557.06 85.2536L1557.14 85.0098ZM1557.06 85.2536L1556.94 85.4776L1557.06 85.2536ZM1556.94 85.4776L1556.78 85.6752L1556.94 85.4776ZM1556.78 85.6752L1556.58 85.8373L1556.78 85.6752ZM1556.58 85.8373L1556.36 85.9572L1556.58 85.8373ZM1556.36 85.9572L1556.12 86.031L1556.36 85.9572ZM1556.12 86.031L1555.86 86.056L1556.12 86.031ZM1555.86 86.056H1539.18H1555.86ZM1539.18 86.056V88.2025V86.056ZM1539.18 88.2025L1539.16 88.4555L1539.18 88.2025ZM1539.16 88.4555L1539.08 88.6992L1539.16 88.4555ZM1539.08 88.6992L1538.96 88.9245L1539.08 88.6992ZM1538.96 88.9245L1538.8 89.1222L1538.96 88.9245ZM1538.8 89.1222L1538.61 89.2829L1538.8 89.1222ZM1538.61 89.2829L1538.38 89.4042L1538.61 89.2829ZM1538.38 89.4042L1538.14 89.478L1538.38 89.4042ZM1538.14 89.478L1537.88 89.503L1538.14 89.478ZM1537.88 89.503H1532.36H1537.88ZM1532.36 89.503V91.4294V89.503ZM1532.36 91.4294L1532.33 91.6824L1532.36 91.4294ZM1532.33 91.6824L1532.26 91.9261L1532.33 91.6824ZM1532.26 91.9261L1532.14 92.1515L1532.26 91.9261ZM1532.14 92.1515L1531.98 92.3478L1532.14 92.1515ZM1531.98 92.3478L1531.78 92.5099L1531.98 92.3478ZM1531.78 92.5099L1531.56 92.6298L1531.78 92.5099ZM1531.56 92.6298L1531.31 92.7049L1531.56 92.6298ZM1531.31 92.7049L1531.06 92.7299L1531.31 92.7049Z" stroke="#9499B0" stroke-width="2"/>
<path d="M1539.18 54.8871V86.0561" stroke="#9499B0" stroke-width="2"/>
<path d="M1532.36 51.4401V89.5031" stroke="#9499B0" stroke-width="2"/>
<path d="M1478.98 86.0561V54.8871" stroke="#9499B0" stroke-width="2"/>
<path d="M1485.8 51.4401V89.5031" stroke="#9499B0" stroke-width="2"/>
<path d="M1462.05 86.031L1462.3 86.0561M1461 84.7556L1461.03 85.0099L1461 84.7556ZM1461.03 85.0099L1461.1 85.2536L1461.03 85.0099ZM1461.1 85.2536L1461.22 85.4776L1461.1 85.2536ZM1461.22 85.4776L1461.38 85.6753L1461.22 85.4776ZM1461.38 85.6753L1461.58 85.8373L1461.38 85.6753ZM1461.58 85.8373L1461.8 85.9572L1461.58 85.8373ZM1461.8 85.9572L1462.05 86.031L1461.8 85.9572Z" stroke="#9499B0" stroke-width="2"/>
<path d="M1462.3 86.0561H1478.98" stroke="#9499B0" stroke-width="2"/>
<path d="M1478.98 86.0561V88.2025" stroke="#9499B0" stroke-width="2"/>
<path d="M1480.03 89.478L1480.28 89.503M1478.98 88.2025L1479.01 88.4555L1478.98 88.2025ZM1479.01 88.4555L1479.08 88.6993L1479.01 88.4555ZM1479.08 88.6993L1479.2 88.9246L1479.08 88.6993ZM1479.2 88.9246L1479.36 89.1222L1479.2 88.9246ZM1479.36 89.1222L1479.56 89.283L1479.36 89.1222ZM1479.56 89.283L1479.78 89.4042L1479.56 89.283ZM1479.78 89.4042L1480.03 89.478L1479.78 89.4042Z" stroke="#9499B0" stroke-width="2"/>
<path d="M1480.28 89.5031H1485.8" stroke="#9499B0" stroke-width="2"/>
<path d="M1485.8 89.5031V91.4295" stroke="#9499B0" stroke-width="2"/>
<path d="M1486.85 92.705L1487.11 92.73M1485.8 91.4295L1485.83 91.6825L1485.8 91.4295ZM1485.83 91.6825L1485.9 91.9262L1485.83 91.6825ZM1485.9 91.9262L1486.02 92.1515L1485.9 91.9262ZM1486.02 92.1515L1486.19 92.3479L1486.02 92.1515ZM1486.19 92.3479L1486.38 92.5099L1486.19 92.3479ZM1486.38 92.5099L1486.61 92.6299L1486.38 92.5099ZM1486.61 92.6299L1486.85 92.705L1486.61 92.6299Z" stroke="#9499B0" stroke-width="2"/>
<path d="M268.406 76.5C271.772 76.5 274.5 73.7717 274.5 70.4063C274.5 67.0408 271.772 64.3125 268.406 64.3125C265.041 64.3125 262.312 67.0408 262.312 70.4063C262.312 73.7717 265.041 76.5 268.406 76.5Z" stroke="#9499B0" stroke-width="2" stroke-miterlimit="10" stroke-linecap="round" stroke-linejoin="round"/>
<path d="M293.594 64.7188C292.984 61.2656 291.562 58.2188 289.734 55.375C286.688 57 283.641 57.2031 282.016 55.5781C280.391 53.9531 280.594 51.1094 282.219 47.8594C279.375 46.0312 276.328 44.6094 272.875 44C272.062 47.4531 270.031 49.6875 267.797 49.6875C265.562 49.6875 263.531 47.4531 262.516 44.2031C259.062 44.8125 256.016 46.2344 253.172 48.0625C254.797 51.1094 255 54.1563 253.375 55.7813C251.75 57.4063 248.906 57 245.859 55.375C244.031 58.2188 242.609 61.2656 242 64.7188C245.25 65.7344 247.484 67.7656 247.484 70C247.484 72.2344 245.25 74.2656 242 75.2813C242.609 78.7344 244.031 81.7813 245.859 84.625C248.906 83 251.953 82.7969 253.578 84.4219C255.203 86.0469 255 88.8906 253.375 92.1406C256.219 93.9688 259.266 95.3906 262.719 96C263.734 92.75 265.766 90.5156 268 90.5156C270.234 90.5156 272.266 92.75 273.281 96C276.734 95.3906 279.781 93.9688 282.625 92.1406C281 89.0938 280.797 86.0469 282.422 84.4219C284.047 82.7969 286.891 83 290.141 84.625C291.969 81.7813 293.391 78.7344 294 75.2813C290.344 74.2656 288.109 72.2344 288.109 70C288.109 67.7656 290.344 65.7344 293.594 64.7188Z" stroke="#9499B0" stroke-width="2" stroke-miterlimit="10" stroke-linecap="round" stroke-linejoin="round"/>
<path d="M1253.04 126.125C1257.5 126.125 1261.13 122.505 1261.13 118.039C1261.13 113.573 1257.5 109.953 1253.04 109.953C1248.57 109.953 1244.95 113.573 1244.95 118.039C1244.95 122.505 1248.57 126.125 1253.04 126.125Z" stroke="#9499B0" stroke-width="2" stroke-miterlimit="10" stroke-linecap="round" stroke-linejoin="round"/>
<path d="M1286.46 110.492C1285.65 105.91 1283.77 101.867 1281.34 98.0938C1277.3 100.25 1273.25 100.52 1271.1 98.3633C1268.94 96.207 1269.21 92.4336 1271.37 88.1211C1267.59 85.6953 1263.55 83.8086 1258.97 83C1257.89 87.582 1255.2 90.5469 1252.23 90.5469C1249.27 90.5469 1246.57 87.582 1245.22 83.2695C1240.64 84.0781 1236.6 85.9648 1232.82 88.3906C1234.98 92.4336 1235.25 96.4766 1233.09 98.6328C1230.94 100.789 1227.16 100.25 1223.12 98.0938C1220.7 101.867 1218.81 105.91 1218 110.492C1222.31 111.84 1225.28 114.535 1225.28 117.5C1225.28 120.465 1222.31 123.16 1218 124.508C1218.81 129.09 1220.7 133.133 1223.12 136.906C1227.16 134.75 1231.21 134.48 1233.36 136.637C1235.52 138.793 1235.25 142.566 1233.09 146.879C1236.87 149.305 1240.91 151.191 1245.49 152C1246.84 147.688 1249.54 144.723 1252.5 144.723C1255.46 144.723 1258.16 147.688 1259.51 152C1264.09 151.191 1268.13 149.305 1271.91 146.879C1269.75 142.836 1269.48 138.793 1271.64 136.637C1273.79 134.48 1277.57 134.75 1281.88 136.906C1284.3 133.133 1286.19 129.09 1287 124.508C1282.15 123.16 1279.18 120.465 1279.18 117.5C1279.18 114.535 1282.15 111.84 1286.46 110.492Z" stroke="#9499B0" stroke-width="2" stroke-miterlimit="10" stroke-linecap="round" stroke-linejoin="round"/>
<path d="M122.32 267.445C129.116 267.445 134.625 261.936 134.625 255.14C134.625 248.345 129.116 242.836 122.32 242.836C115.525 242.836 110.016 248.345 110.016 255.14C110.016 261.936 115.525 267.445 122.32 267.445Z" stroke="#9499B0" stroke-width="2" stroke-miterlimit="10" stroke-linecap="round" stroke-linejoin="round"/>
<path d="M173.18 243.656C171.949 236.683 169.078 230.531 165.387 224.789C159.234 228.07 153.082 228.48 149.801 225.199C146.52 221.918 146.93 216.175 150.211 209.613C144.469 205.922 138.316 203.05 131.344 201.82C129.703 208.793 125.602 213.304 121.09 213.304C116.578 213.304 112.477 208.793 110.426 202.23C103.453 203.461 97.3008 206.332 91.5586 210.023C94.8398 216.175 95.25 222.328 91.9687 225.609C88.6875 228.89 82.9453 228.07 76.793 224.789C73.1016 230.531 70.2305 236.683 69 243.656C75.5625 245.707 80.0742 249.808 80.0742 254.32C80.0742 258.832 75.5625 262.933 69 264.984C70.2305 271.957 73.1016 278.109 76.793 283.851C82.9453 280.57 89.0977 280.16 92.3789 283.441C95.6602 286.722 95.25 292.465 91.9687 299.027C97.7109 302.718 103.863 305.59 110.836 306.82C112.887 300.258 116.988 295.746 121.5 295.746C126.012 295.746 130.113 300.258 132.164 306.82C139.137 305.59 145.289 302.718 151.031 299.027C147.75 292.875 147.34 286.722 150.621 283.441C153.902 280.16 159.645 280.57 166.207 283.851C169.898 278.109 172.77 271.957 174 264.984C166.617 262.933 162.105 258.832 162.105 254.32C162.105 249.808 166.617 245.707 173.18 243.656Z" stroke="#9499B0" stroke-width="2" stroke-miterlimit="10" stroke-linecap="round" stroke-linejoin="round"/>
<path d="M919.297 447.57C921.756 447.57 923.75 445.576 923.75 443.117C923.75 440.657 921.756 438.664 919.297 438.664C916.837 438.664 914.844 440.657 914.844 443.117C914.844 445.576 916.837 447.57 919.297 447.57Z" stroke="#9499B0" stroke-width="2" stroke-miterlimit="10" stroke-linecap="round" stroke-linejoin="round"/>
<path d="M937.703 438.961C937.258 436.437 936.219 434.211 934.883 432.133C932.656 433.32 930.43 433.468 929.242 432.281C928.055 431.093 928.203 429.015 929.391 426.64C927.313 425.304 925.086 424.265 922.563 423.82C921.969 426.343 920.484 427.976 918.852 427.976C917.219 427.976 915.734 426.343 914.992 423.968C912.469 424.414 910.242 425.453 908.164 426.789C909.352 429.015 909.5 431.242 908.312 432.429C907.125 433.617 905.047 433.32 902.82 432.133C901.484 434.211 900.445 436.437 900 438.961C902.375 439.703 904.008 441.187 904.008 442.82C904.008 444.453 902.375 445.937 900 446.679C900.445 449.203 901.484 451.429 902.82 453.508C905.047 452.32 907.273 452.172 908.461 453.359C909.648 454.547 909.5 456.625 908.312 459C910.391 460.336 912.617 461.375 915.141 461.82C915.883 459.445 917.367 457.812 919 457.812C920.633 457.812 922.117 459.445 922.859 461.82C925.383 461.375 927.609 460.336 929.688 459C928.5 456.773 928.352 454.547 929.539 453.359C930.727 452.172 932.805 452.32 935.18 453.508C936.516 451.429 937.555 449.203 938 446.679C935.328 445.937 933.695 444.453 933.695 442.82C933.695 441.187 935.328 439.703 937.703 438.961Z" stroke="#9499B0" stroke-width="2" stroke-miterlimit="10" stroke-linecap="round" stroke-linejoin="round"/>
<path d="M1558.13 45.0187L1558.34 45M1563.61 55.0846H1623.26H1563.61ZM1623.26 55.0846V85.0368V55.0846ZM1623.26 85.0368H1563.61H1623.26ZM1563.61 85.0368V55.0846V85.0368ZM1624.6 45H1628.53H1624.6ZM1628.53 45L1628.74 45.0187L1628.53 45ZM1628.74 45.0187L1628.94 45.0738L1628.74 45.0187ZM1628.94 45.0738L1629.13 45.1653L1628.94 45.0738ZM1629.13 45.1653L1629.31 45.2901L1629.13 45.1653ZM1629.31 45.2901L1629.47 45.4451L1629.31 45.2901ZM1629.47 45.4451L1629.61 45.627L1629.47 45.4451ZM1629.61 45.627L1629.72 45.8298L1629.61 45.627ZM1629.72 45.8298L1629.8 46.0503L1629.72 45.8298ZM1629.8 46.0503L1629.85 46.2832L1629.8 46.0503ZM1629.85 46.2832L1629.87 46.5203L1629.85 46.2832ZM1629.87 46.5203V93.6011V46.5203ZM1629.87 93.6011L1629.85 93.8382L1629.87 93.6011ZM1629.85 93.8382L1629.8 94.0711L1629.85 93.8382ZM1629.8 94.0711L1629.72 94.2916L1629.8 94.0711ZM1629.72 94.2916L1629.61 94.4943L1629.72 94.2916ZM1629.61 94.4943L1629.47 94.6763L1629.61 94.4943ZM1629.47 94.6763L1629.31 94.8313L1629.47 94.6763ZM1629.31 94.8313L1629.13 94.956L1629.31 94.8313ZM1629.13 94.956L1628.94 95.0476L1629.13 94.956ZM1628.94 95.0476L1628.74 95.1027L1628.94 95.0476ZM1628.74 95.1027L1628.53 95.1214L1628.74 95.1027ZM1628.53 95.1214H1624.6H1628.53ZM1624.6 95.1214L1624.39 95.1027L1624.6 95.1214ZM1624.39 95.1027L1624.18 95.0476L1624.39 95.1027ZM1624.18 95.0476L1623.99 94.956L1624.18 95.0476ZM1623.99 94.956L1623.81 94.8313L1623.99 94.956ZM1623.81 94.8313L1623.65 94.6763L1623.81 94.8313ZM1623.65 94.6763L1623.51 94.4943L1623.65 94.6763ZM1623.51 94.4943L1623.4 94.2916L1623.51 94.4943ZM1623.4 94.2916L1623.32 94.0711L1623.4 94.2916ZM1623.32 94.0711L1623.27 93.8382L1623.32 94.0711ZM1623.27 93.8382L1623.26 93.6011L1623.27 93.8382ZM1623.26 93.6011V46.5203V93.6011ZM1623.26 46.5203L1623.27 46.2832L1623.26 46.5203ZM1623.27 46.2832L1623.32 46.0503L1623.27 46.2832ZM1623.32 46.0503L1623.4 45.8298L1623.32 46.0503ZM1623.4 45.8298L1623.51 45.627L1623.4 45.8298ZM1623.51 45.627L1623.65 45.4451L1623.51 45.627ZM1623.65 45.4451L1623.81 45.2901L1623.65 45.4451ZM1623.81 45.2901L1623.99 45.1653L1623.81 45.2901ZM1623.99 45.1653L1624.18 45.0738L1623.99 45.1653ZM1624.18 45.0738L1624.39 45.0187L1624.18 45.0738ZM1624.39 45.0187L1624.6 45L1624.39 45.0187ZM1558.34 45H1562.27H1558.34ZM1562.27 45L1562.48 45.0187L1562.27 45ZM1562.48 45.0187L1562.68 45.0738L1562.48 45.0187ZM1562.68 45.0738L1562.88 45.1653L1562.68 45.0738ZM1562.88 45.1653L1563.06 45.2901L1562.88 45.1653ZM1563.06 45.2901L1563.22 45.4451L1563.06 45.2901ZM1563.22 45.4451L1563.35 45.627L1563.22 45.4451ZM1563.35 45.627L1563.46 45.8298L1563.35 45.627ZM1563.46 45.8298L1563.54 46.0503L1563.46 45.8298ZM1563.54 46.0503L1563.59 46.2832L1563.54 46.0503ZM1563.59 46.2832L1563.61 46.5203L1563.59 46.2832ZM1563.61 46.5203V93.6011V46.5203ZM1563.61 93.6011L1563.59 93.8382L1563.61 93.6011ZM1563.59 93.8382L1563.54 94.0711L1563.59 93.8382ZM1563.54 94.0711L1563.46 94.2916L1563.54 94.0711ZM1563.46 94.2916L1563.35 94.4943L1563.46 94.2916ZM1563.35 94.4943L1563.22 94.6763L1563.35 94.4943ZM1563.22 94.6763L1563.06 94.8313L1563.22 94.6763ZM1563.06 94.8313L1562.88 94.956L1563.06 94.8313ZM1562.88 94.956L1562.68 95.0476L1562.88 94.956ZM1562.68 95.0476L1562.48 95.1027L1562.68 95.0476ZM1562.48 95.1027L1562.27 95.1214L1562.48 95.1027ZM1562.27 95.1214H1558.34H1562.27ZM1558.34 95.1214L1558.13 95.1027L1558.34 95.1214ZM1558.13 95.1027L1557.93 95.0476L1558.13 95.1027ZM1557.93 95.0476L1557.73 94.956L1557.93 95.0476ZM1557.73 94.956L1557.55 94.8313L1557.73 94.956ZM1557.55 94.8313L1557.39 94.6763L1557.55 94.8313ZM1557.39 94.6763L1557.26 94.4943L1557.39 94.6763ZM1557.26 94.4943L1557.15 94.2916L1557.26 94.4943ZM1557.15 94.2916L1557.07 94.0711L1557.15 94.2916ZM1557.07 94.0711L1557.02 93.8382L1557.07 94.0711ZM1557.02 93.8382L1557 93.6011L1557.02 93.8382ZM1557 93.6011V46.5203V93.6011ZM1557 46.5203L1557.02 46.2832L1557 46.5203ZM1557.02 46.2832L1557.07 46.0503L1557.02 46.2832ZM1557.07 46.0503L1557.15 45.8298L1557.07 46.0503ZM1557.15 45.8298L1557.26 45.627L1557.15 45.8298ZM1557.26 45.627L1557.39 45.4451L1557.26 45.627ZM1557.39 45.4451L1557.55 45.2901L1557.39 45.4451ZM1557.55 45.2901L1557.73 45.1653L1557.55 45.2901ZM1557.73 45.1653L1557.93 45.0738L1557.73 45.1653ZM1557.93 45.0738L1558.13 45.0187L1557.93 45.0738Z" stroke="#9499B0" stroke-width="2"/>
<path d="M205.13 391.019L205.34 391M210.61 401.085H270.256H210.61ZM270.256 401.085V431.037V401.085ZM270.256 431.037H210.61H270.256ZM210.61 431.037V401.085V431.037ZM271.596 391H275.525H271.596ZM275.525 391L275.735 391.019L275.525 391ZM275.735 391.019L275.939 391.074L275.735 391.019ZM275.939 391.074L276.134 391.165L275.939 391.074ZM276.134 391.165L276.313 391.29L276.134 391.165ZM276.313 391.29L276.473 391.445L276.313 391.29ZM276.473 391.445L276.609 391.627L276.473 391.445ZM276.609 391.627L276.719 391.83L276.609 391.627ZM276.719 391.83L276.8 392.05L276.719 391.83ZM276.8 392.05L276.849 392.283L276.8 392.05ZM276.849 392.283L276.866 392.52L276.849 392.283ZM276.866 392.52V439.601V392.52ZM276.866 439.601L276.849 439.838L276.866 439.601ZM276.849 439.838L276.8 440.071L276.849 439.838ZM276.8 440.071L276.719 440.292L276.8 440.071ZM276.719 440.292L276.609 440.494L276.719 440.292ZM276.609 440.494L276.473 440.676L276.609 440.494ZM276.473 440.676L276.313 440.831L276.473 440.676ZM276.313 440.831L276.134 440.956L276.313 440.831ZM276.134 440.956L275.939 441.048L276.134 440.956ZM275.939 441.048L275.735 441.103L275.939 441.048ZM275.735 441.103L275.525 441.121L275.735 441.103ZM275.525 441.121H271.596H275.525ZM271.596 441.121L271.386 441.103L271.596 441.121ZM271.386 441.103L271.182 441.048L271.386 441.103ZM271.182 441.048L270.988 440.956L271.182 441.048ZM270.988 440.956L270.808 440.831L270.988 440.956ZM270.808 440.831L270.648 440.676L270.808 440.831ZM270.648 440.676L270.511 440.494L270.648 440.676ZM270.511 440.494L270.401 440.292L270.511 440.494ZM270.401 440.292L270.322 440.071L270.401 440.292ZM270.322 440.071L270.272 439.838L270.322 440.071ZM270.272 439.838L270.256 439.601L270.272 439.838ZM270.256 439.601V392.52V439.601ZM270.256 392.52L270.272 392.283L270.256 392.52ZM270.272 392.283L270.322 392.05L270.272 392.283ZM270.322 392.05L270.401 391.83L270.322 392.05ZM270.401 391.83L270.511 391.627L270.401 391.83ZM270.511 391.627L270.648 391.445L270.511 391.627ZM270.648 391.445L270.808 391.29L270.648 391.445ZM270.808 391.29L270.988 391.165L270.808 391.29ZM270.988 391.165L271.182 391.074L270.988 391.165ZM271.182 391.074L271.386 391.019L271.182 391.074ZM271.386 391.019L271.596 391L271.386 391.019ZM205.34 391H209.27H205.34ZM209.27 391L209.479 391.019L209.27 391ZM209.479 391.019L209.684 391.074L209.479 391.019ZM209.684 391.074L209.878 391.165L209.684 391.074ZM209.878 391.165L210.057 391.29L209.878 391.165ZM210.057 391.29L210.218 391.445L210.057 391.29ZM210.218 391.445L210.354 391.627L210.218 391.445ZM210.354 391.627L210.464 391.83L210.354 391.627ZM210.464 391.83L210.544 392.05L210.464 391.83ZM210.544 392.05L210.593 392.283L210.544 392.05ZM210.593 392.283L210.61 392.52L210.593 392.283ZM210.61 392.52V439.601V392.52ZM210.61 439.601L210.593 439.838L210.61 439.601ZM210.593 439.838L210.544 440.071L210.593 439.838ZM210.544 440.071L210.464 440.292L210.544 440.071ZM210.464 440.292L210.354 440.494L210.464 440.292ZM210.354 440.494L210.218 440.676L210.354 440.494ZM210.218 440.676L210.057 440.831L210.218 440.676ZM210.057 440.831L209.878 440.956L210.057 440.831ZM209.878 440.956L209.684 441.048L209.878 440.956ZM209.684 441.048L209.479 441.103L209.684 441.048ZM209.479 441.103L209.27 441.121L209.479 441.103ZM209.27 441.121H205.34H209.27ZM205.34 441.121L205.13 441.103L205.34 441.121ZM205.13 441.103L204.926 441.048L205.13 441.103ZM204.926 441.048L204.732 440.956L204.926 441.048ZM204.732 440.956L204.552 440.831L204.732 440.956ZM204.552 440.831L204.393 440.676L204.552 440.831ZM204.393 440.676L204.256 440.494L204.393 440.676ZM204.256 440.494L204.147 440.292L204.256 440.494ZM204.147 440.292L204.066 440.071L204.147 440.292ZM204.066 440.071L204.016 439.838L204.066 440.071ZM204.016 439.838L204 439.601L204.016 439.838ZM204 439.601V392.52V439.601ZM204 392.52L204.016 392.283L204 392.52ZM204.016 392.283L204.066 392.05L204.016 392.283ZM204.066 392.05L204.147 391.83L204.066 392.05ZM204.147 391.83L204.256 391.627L204.147 391.83ZM204.256 391.627L204.393 391.445L204.256 391.627ZM204.393 391.445L204.552 391.29L204.393 391.445ZM204.552 391.29L204.732 391.165L204.552 391.29ZM204.732 391.165L204.926 391.074L204.732 391.165ZM204.926 391.074L205.13 391.019L204.926 391.074Z" stroke="#9499B0" stroke-width="2"/>
<path d="M45.1303 391.019L45.3401 391M50.6098 401.085H110.256H50.6098ZM110.256 401.085V431.037V401.085ZM110.256 431.037H50.6098H110.256ZM50.6098 431.037V401.085V431.037ZM111.596 391H115.525H111.596ZM115.525 391L115.735 391.019L115.525 391ZM115.735 391.019L115.939 391.074L115.735 391.019ZM115.939 391.074L116.134 391.165L115.939 391.074ZM116.134 391.165L116.313 391.29L116.134 391.165ZM116.313 391.29L116.473 391.445L116.313 391.29ZM116.473 391.445L116.609 391.627L116.473 391.445ZM116.609 391.627L116.719 391.83L116.609 391.627ZM116.719 391.83L116.8 392.05L116.719 391.83ZM116.8 392.05L116.849 392.283L116.8 392.05ZM116.849 392.283L116.866 392.52L116.849 392.283ZM116.866 392.52V439.601V392.52ZM116.866 439.601L116.849 439.838L116.866 439.601ZM116.849 439.838L116.8 440.071L116.849 439.838ZM116.8 440.071L116.719 440.292L116.8 440.071ZM116.719 440.292L116.609 440.494L116.719 440.292ZM116.609 440.494L116.473 440.676L116.609 440.494ZM116.473 440.676L116.313 440.831L116.473 440.676ZM116.313 440.831L116.134 440.956L116.313 440.831ZM116.134 440.956L115.939 441.048L116.134 440.956ZM115.939 441.048L115.735 441.103L115.939 441.048ZM115.735 441.103L115.525 441.121L115.735 441.103ZM115.525 441.121H111.596H115.525ZM111.596 441.121L111.386 441.103L111.596 441.121ZM111.386 441.103L111.182 441.048L111.386 441.103ZM111.182 441.048L110.988 440.956L111.182 441.048ZM110.988 440.956L110.808 440.831L110.988 440.956ZM110.808 440.831L110.648 440.676L110.808 440.831ZM110.648 440.676L110.511 440.494L110.648 440.676ZM110.511 440.494L110.401 440.292L110.511 440.494ZM110.401 440.292L110.322 440.071L110.401 440.292ZM110.322 440.071L110.272 439.838L110.322 440.071ZM110.272 439.838L110.256 439.601L110.272 439.838ZM110.256 439.601V392.52V439.601ZM110.256 392.52L110.272 392.283L110.256 392.52ZM110.272 392.283L110.322 392.05L110.272 392.283ZM110.322 392.05L110.401 391.83L110.322 392.05ZM110.401 391.83L110.511 391.627L110.401 391.83ZM110.511 391.627L110.648 391.445L110.511 391.627ZM110.648 391.445L110.808 391.29L110.648 391.445ZM110.808 391.29L110.988 391.165L110.808 391.29ZM110.988 391.165L111.182 391.074L110.988 391.165ZM111.182 391.074L111.386 391.019L111.182 391.074ZM111.386 391.019L111.596 391L111.386 391.019ZM45.3401 391H49.2697H45.3401ZM49.2697 391L49.4795 391.019L49.2697 391ZM49.4795 391.019L49.6837 391.074L49.4795 391.019ZM49.6837 391.074L49.8779 391.165L49.6837 391.074ZM49.8779 391.165L50.0575 391.29L49.8779 391.165ZM50.0575 391.29L50.2178 391.445L50.0575 391.29ZM50.2178 391.445L50.3543 391.627L50.2178 391.445ZM50.3543 391.627L50.4642 391.83L50.3543 391.627ZM50.4642 391.83L50.5439 392.05L50.4642 391.83ZM50.5439 392.05L50.5933 392.283L50.5439 392.05ZM50.5933 392.283L50.6098 392.52L50.5933 392.283ZM50.6098 392.52V439.601V392.52ZM50.6098 439.601L50.5933 439.838L50.6098 439.601ZM50.5933 439.838L50.5439 440.071L50.5933 439.838ZM50.5439 440.071L50.4642 440.292L50.5439 440.071ZM50.4642 440.292L50.3543 440.494L50.4642 440.292ZM50.3543 440.494L50.2178 440.676L50.3543 440.494ZM50.2178 440.676L50.0575 440.831L50.2178 440.676ZM50.0575 440.831L49.8779 440.956L50.0575 440.831ZM49.8779 440.956L49.6837 441.048L49.8779 440.956ZM49.6837 441.048L49.4795 441.103L49.6837 441.048ZM49.4795 441.103L49.2697 441.121L49.4795 441.103ZM49.2697 441.121H45.3401H49.2697ZM45.3401 441.121L45.1303 441.103L45.3401 441.121ZM45.1303 441.103L44.9261 441.048L45.1303 441.103ZM44.9261 441.048L44.7319 440.956L44.9261 441.048ZM44.7319 440.956L44.5523 440.831L44.7319 440.956ZM44.5523 440.831L44.393 440.676L44.5523 440.831ZM44.393 440.676L44.2565 440.494L44.393 440.676ZM44.2565 440.494L44.1466 440.292L44.2565 440.494ZM44.1466 440.292L44.066 440.071L44.1466 440.292ZM44.066 440.071L44.0165 439.838L44.066 440.071ZM44.0165 439.838L44 439.601L44.0165 439.838ZM44 439.601V392.52V439.601ZM44 392.52L44.0165 392.283L44 392.52ZM44.0165 392.283L44.066 392.05L44.0165 392.283ZM44.066 392.05L44.1466 391.83L44.066 392.05ZM44.1466 391.83L44.2565 391.627L44.1466 391.83ZM44.2565 391.627L44.393 391.445L44.2565 391.627ZM44.393 391.445L44.5523 391.29L44.393 391.445ZM44.5523 391.29L44.7319 391.165L44.5523 391.29ZM44.7319 391.165L44.9261 391.074L44.7319 391.165ZM44.9261 391.074L45.1303 391.019L44.9261 391.074Z" stroke="#9499B0" stroke-width="2"/>
<path d="M1678.23 67.8125L1678.39 67.9476M1674.98 78.8047L1717.16 120.981L1674.98 78.8047ZM1717.16 120.981L1695.98 142.16L1717.16 120.981ZM1695.98 142.16L1653.8 99.9841L1695.98 142.16ZM1653.8 99.9841L1674.98 78.8047L1653.8 99.9841ZM1725.24 114.797L1728.02 117.576L1725.24 114.797ZM1728.02 117.576L1728.15 117.738L1728.02 117.576ZM1728.15 117.738L1728.26 117.921L1728.15 117.738ZM1728.26 117.921L1728.33 118.123L1728.26 117.921ZM1728.33 118.123L1728.37 118.338L1728.33 118.123ZM1728.37 118.338L1728.37 118.561L1728.37 118.338ZM1728.37 118.561L1728.34 118.786L1728.37 118.561ZM1728.34 118.786L1728.27 119.007L1728.34 118.786ZM1728.27 119.007L1728.18 119.22L1728.27 119.007ZM1728.18 119.22L1728.05 119.419L1728.18 119.22ZM1728.05 119.419L1727.89 119.599L1728.05 119.419ZM1727.89 119.599L1694.6 152.89L1727.89 119.599ZM1694.6 152.89L1694.42 153.046L1694.6 152.89ZM1694.42 153.046L1694.22 153.176L1694.42 153.046ZM1694.22 153.176L1694.01 153.274L1694.22 153.176ZM1694.01 153.274L1693.79 153.34L1694.01 153.274ZM1693.79 153.34L1693.56 153.372L1693.79 153.34ZM1693.56 153.372L1693.34 153.369L1693.56 153.372ZM1693.34 153.369L1693.12 153.33L1693.34 153.369ZM1693.12 153.33L1692.92 153.258L1693.12 153.33ZM1692.92 153.258L1692.74 153.152L1692.92 153.258ZM1692.74 153.152L1692.58 153.017L1692.74 153.152ZM1692.58 153.017L1689.8 150.239L1692.58 153.017ZM1689.8 150.239L1689.66 150.077L1689.8 150.239ZM1689.66 150.077L1689.56 149.894L1689.66 150.077ZM1689.56 149.894L1689.48 149.692L1689.56 149.894ZM1689.48 149.692L1689.45 149.476L1689.48 149.692ZM1689.45 149.476L1689.44 149.254L1689.45 149.476ZM1689.44 149.254L1689.47 149.028L1689.44 149.254ZM1689.47 149.028L1689.54 148.807L1689.47 149.028ZM1689.54 148.807L1689.64 148.595L1689.54 148.807ZM1689.64 148.595L1689.77 148.395L1689.64 148.595ZM1689.77 148.395L1689.92 148.216L1689.77 148.395ZM1689.92 148.216L1723.22 114.925L1689.92 148.216ZM1723.22 114.925L1723.4 114.769L1723.22 114.925ZM1723.4 114.769L1723.6 114.639L1723.4 114.769ZM1723.6 114.639L1723.81 114.54L1723.6 114.639ZM1723.81 114.54L1724.03 114.474L1723.81 114.54ZM1724.03 114.474L1724.25 114.442L1724.03 114.474ZM1724.25 114.442L1724.48 114.446L1724.25 114.442ZM1724.48 114.446L1724.69 114.484L1724.48 114.446ZM1724.69 114.484L1724.89 114.557L1724.69 114.484ZM1724.89 114.557L1725.08 114.662L1724.89 114.557ZM1725.08 114.662L1725.24 114.797L1725.08 114.662ZM1678.39 67.9476L1681.17 70.7263L1678.39 67.9476ZM1681.17 70.7263L1681.3 70.8878L1681.17 70.7263ZM1681.3 70.8878L1681.41 71.0712L1681.3 70.8878ZM1681.41 71.0712L1681.48 71.2732L1681.41 71.0712ZM1681.48 71.2732L1681.52 71.4884L1681.48 71.2732ZM1681.52 71.4884L1681.52 71.7113L1681.52 71.4884ZM1681.52 71.7113L1681.49 71.9365L1681.52 71.7113ZM1681.49 71.9365L1681.43 72.1576L1681.49 71.9365ZM1681.43 72.1576L1681.33 72.3699L1681.43 72.1576ZM1681.33 72.3699L1681.2 72.5695L1681.33 72.3699ZM1681.2 72.5695L1681.04 72.7488L1681.2 72.5695ZM1681.04 72.7488L1647.75 106.04L1681.04 72.7488ZM1647.75 106.04L1647.57 106.196L1647.75 106.04ZM1647.57 106.196L1647.37 106.326L1647.57 106.196ZM1647.37 106.326L1647.16 106.425L1647.37 106.326ZM1647.16 106.425L1646.94 106.491L1647.16 106.425ZM1646.94 106.491L1646.71 106.523L1646.94 106.491ZM1646.71 106.523L1646.49 106.519L1646.71 106.523ZM1646.49 106.519L1646.27 106.481L1646.49 106.519ZM1646.27 106.481L1646.07 106.408L1646.27 106.481ZM1646.07 106.408L1645.89 106.303L1646.07 106.408ZM1645.89 106.303L1645.73 106.167L1645.89 106.303ZM1645.73 106.167L1642.95 103.389L1645.73 106.167ZM1642.95 103.389L1642.81 103.227L1642.95 103.389ZM1642.81 103.227L1642.71 103.044L1642.81 103.227ZM1642.71 103.044L1642.63 102.842L1642.71 103.044ZM1642.63 102.842L1642.6 102.627L1642.63 102.842ZM1642.6 102.627L1642.59 102.404L1642.6 102.627ZM1642.59 102.404L1642.62 102.179L1642.59 102.404ZM1642.62 102.179L1642.69 101.958L1642.62 102.179ZM1642.69 101.958L1642.79 101.745L1642.69 101.958ZM1642.79 101.745L1642.92 101.545L1642.79 101.745ZM1642.92 101.545L1643.07 101.366L1642.92 101.545ZM1643.07 101.366L1676.37 68.075L1643.07 101.366ZM1676.37 68.075L1676.55 67.919L1676.37 68.075ZM1676.55 67.919L1676.75 67.7893L1676.55 67.919ZM1676.75 67.7893L1676.96 67.6904L1676.75 67.7893ZM1676.96 67.6904L1677.18 67.6247L1676.96 67.6904ZM1677.18 67.6247L1677.4 67.5926L1677.18 67.6247ZM1677.4 67.5926L1677.63 67.5957L1677.4 67.5926ZM1677.63 67.5957L1677.84 67.6344L1677.63 67.5957ZM1677.84 67.6344L1678.04 67.707L1677.84 67.6344ZM1678.04 67.707L1678.23 67.8125L1678.04 67.707Z" stroke="#9499B0" stroke-width="2"/>
</svg>
